<svg height="512" viewBox="0 0 64 64" width="512" xmlns="http://www.w3.org/2000/svg" data-name="Layer 3"><path d="M50 34a4 4 0 00-4-4H14a4 4 0 00-4 4v16.561A3.439 3.439 0 0013.439 54a3.439 3.439 0 012.589 1.175l4 4.567A6.613 6.613 0 0025 62h21a4 4 0 004-4z" fill="#326c56"/><path d="M46 30H14a3.961 3.961 0 00-1.64.36A3.961 3.961 0 0012 32v16.561A3.439 3.439 0 0015.439 52a3.441 3.441 0 012.589 1.174l4 4.568A6.613 6.613 0 0027 60h21a3.961 3.961 0 001.64-.36A3.961 3.961 0 0050 58V34a4 4 0 00-4-4z" fill="#3a7c63"/><path d="M46 30H14a4 4 0 00-4 4v2h40v-2a4 4 0 00-4-4z" fill="#43525b"/><path d="M46 30H16a4 4 0 00-4 4v2h38v-2a4 4 0 00-4-4z" fill="#69737a"/><path d="M6 42h4v4H6z" fill="#43525b"/><path d="M2 37h4v14H2zm54-6h5.967v18H56z" fill="#9e6c2e"/><path d="M50 37h6v6h-6zm-5 21h-8a5.989 5.989 0 01-6-6v-8a2.006 2.006 0 012-2 2.015 2.015 0 012 2v8a2.006 2.006 0 002 2h2.34A6 6 0 0045 58z" fill="#43525b"/><path d="M37 58h-8a6.009 6.009 0 01-6-6v-8a2.006 2.006 0 012-2 2.015 2.015 0 012 2v8a2.006 2.006 0 002 2h2.34A6 6 0 0037 58zm22-2a2.015 2.015 0 01-2 2H45a5.989 5.989 0 01-6-6v-8a2.006 2.006 0 012-2 2.015 2.015 0 012 2v8a2.006 2.006 0 002 2h12a2.006 2.006 0 012 2zM15 30v-1a3 3 0 013-3 3 3 0 013 3v1m2 0v-1a3 3 0 013-3 3 3 0 013 3v1m10 0v-1a3 3 0 013-3 3 3 0 013 3v1m-14 0v-1a3 3 0 013-3 3 3 0 013 3v1m-24 9h2v2h-2zm32 0h2v2h-2zM13 49h2v2h-2z" fill="#90979c"/><path d="M25 2h14v4H25z" fill="#245b93"/><path d="M25 6l-2 2v3h18V8l-2-2" fill="#5197cd"/><path d="M11.808 23.606l-1.414-1.414 1.414-1.414 1.414 1.414zm2.828-2.828l-1.414-1.414 1.414-1.414 1.414 1.414zm2.828-2.828l-1.414-1.414 1.414-1.414 1.414 1.414zm2.829-2.829l-1.414-1.414 1.414-1.414 1.414 1.414zm31.899 8.485l-1.414-1.414 1.414-1.414 1.414 1.414zm-2.828-2.828l-1.414-1.414 1.414-1.414 1.414 1.414zm-2.828-2.828l-1.414-1.414 1.414-1.414 1.414 1.414zm-2.829-2.829l-1.414-1.414 1.414-1.414 1.414 1.414zM33 24h-2v-2h2zm0-4h-2v-2h2zm0-4h-2v-2h2zm-9.578 7.392l-1.789-.892.895-1.789 1.789.9zm1.789-3.579l-1.789-.893.894-1.789 1.789.893zM27 16.236l-1.789-.894.894-1.789 1.79.894zm13.578 7.156l-.9-1.789 1.789-.9.895 1.789zm-1.789-3.579l-.889-1.789 1.789-.893.894 1.789zM37 16.236l-.9-1.789 1.79-.894.894 1.789z" fill="#8dbde2"/><path d="M59 31h2.967v18H59z" fill="#d99b44"/><path d="M27 2h12v4H27z" fill="#2d6eaf"/><path d="M39 6H27l-2 2v3h16V8z" fill="#8dbde2"/><path d="M2 52h4a1 1 0 001-1v-4h2v3.561A4.444 4.444 0 0013.439 55a2.44 2.44 0 011.836.833l4 4.567A7.607 7.607 0 0025 63h21a5.009 5.009 0 004.9-4H57a3 3 0 000-6h-6v-9h4v5a1 1 0 001 1h5.967a1 1 0 001-1V31a1 1 0 00-1-1H56a1 1 0 00-1 1v5h-4v-2a5.006 5.006 0 00-5-5 4 4 0 00-8 0 4 4 0 00-8 0 4 4 0 00-8 0 4 4 0 00-8 0 5.006 5.006 0 00-5 5v7H7v-4a1 1 0 00-1-1H2a1 1 0 00-1 1v14a1 1 0 001 1zm55-20h3.967v16H57zm1 24a1 1 0 01-1 1H45a5.006 5.006 0 01-5-5v-8a1 1 0 012 0v8a3 3 0 003 3h12a1 1 0 011 1zm-29-1h1.685a7.016 7.016 0 001.426 2H29a5.006 5.006 0 01-5-5v-8a1 1 0 012 0v8a3 3 0 003 3zm3-3v-8a1 1 0 012 0v8a3 3 0 003 3h1.685a7.036 7.036 0 001.42 2H37a5.006 5.006 0 01-5-5zm13 1a1 1 0 01-1-1v-8a3 3 0 00-6 0v8a7.026 7.026 0 00.08 1H37a1 1 0 01-1-1v-8a3 3 0 00-6 0v8a7.026 7.026 0 00.08 1H29a1 1 0 01-1-1v-8a3 3 0 00-6 0v8a7.008 7.008 0 007 7h19.816A3 3 0 0146 61H25a5.611 5.611 0 01-4.223-1.916l-4-4.567A4.439 4.439 0 0013.439 53 2.442 2.442 0 0111 50.561V37h38v16zm10-15v4h-4v-4zM42 27a2 2 0 012 2h-4a2 2 0 012-2zm-8 0a2 2 0 012 2h-4a2 2 0 012-2zm-8 0a2 2 0 012 2h-4a2 2 0 012-2zm-8 0a2 2 0 012 2h-4a2 2 0 012-2zm-4 4h32a3 3 0 013 3v1H11v-1a3 3 0 013-3zM9 43v2H7v-2zm-6-5h2v12H3z"/><path d="M13 39h2v2h-2zm32 0h2v2h-2zM13 49h2v2h-2zM24 2v3.586l-1.707 1.707A1 1 0 0022 8v3a1 1 0 001 1h18a1 1 0 001-1V8a1 1 0 00-.293-.707L40 5.586V2a1 1 0 00-1-1H25a1 1 0 00-1 1zm16 8H24V8.414L25.414 7h13.172L40 8.414zM26 3h12v2H26zm-9.953 13.536l1.414-1.414 1.414 1.414-1.414 1.414zm2.828-2.828l1.414-1.414 1.414 1.414-1.414 1.414zM10.39 22.19l1.414-1.414 1.414 1.414-1.414 1.414zm2.828-2.826l1.414-1.414 1.414 1.414-1.414 1.414zm29.069-5.654l1.414-1.414 1.414 1.414-1.414 1.414zm5.656 5.657l1.414-1.414 1.414 1.414-1.414 1.414zm2.827 2.829l1.413-1.414 1.414 1.414-1.414 1.414zm-5.654-5.657l1.414-1.414 1.414 1.414-1.414 1.414zM31 14h2v2h-2zm0 4h2v2h-2zm0 4h2v1.999h-2zm-5.8-6.65l.893-1.789 1.788.894-.894 1.788zm-3.58 7.152l.894-1.788 1.788.894-.894 1.788zm1.813-3.588l.894-1.79 1.79.894-.894 1.79zm14.479-.88l1.79-.894.894 1.79-1.79.894zm-1.826-3.586l1.788-.894.894 1.788-1.788.894zm3.576 7.155l1.788-.894.894 1.788-1.788.894z"/></svg>