<svg xmlns="http://www.w3.org/2000/svg" viewBox="0 0 64 64" width="512" height="512"><path d="M32 55v2a24.851 24.851 0 009.324-1.8l-.746-1.856A22.867 22.867 0 0132 55zm10.606-2.586l.924 1.774a25.088 25.088 0 002.037-1.186l-1.086-1.68c-.608.394-1.239.761-1.875 1.092zM33 28.142V26h-2v2.142A4 4 0 0028.142 31H26v2h2.142A4 4 0 0031 35.858V38h2v-2.142A4 4 0 0035.858 33H38v-2h-2.142A4 4 0 0033 28.142zM32 34a2 2 0 112-2 2 2 0 01-2 2z"/><path d="M32 2a29.614 29.614 0 00-12.042 2.534A3.948 3.948 0 0018 4a3.867 3.867 0 00-1.169.181 3.989 3.989 0 10-5.324 5.919A29.99 29.99 0 1032 2zm14.584 38.691L41.893 36h6.612a16.868 16.868 0 01-1.921 4.691zM49 32a17.138 17.138 0 01-.128 2h-9.393a1 1 0 00-.708 1.707l6.667 6.666a17.1 17.1 0 01-3.065 3.065l-6.666-6.667a1 1 0 00-1.707.708v9.393a15.689 15.689 0 01-4 0v-9.393a1 1 0 00-1.707-.708l-6.666 6.667a17.1 17.1 0 01-3.065-3.065l6.667-6.666A1 1 0 0024.521 34h-9.393a15.689 15.689 0 010-4h9.393a1 1 0 00.708-1.707l-6.667-6.666a17.1 17.1 0 013.065-3.065l6.666 6.667a1 1 0 00.707.292.987.987 0 00.383-.076 1 1 0 00.617-.924v-9.393a16.322 16.322 0 014-.01v9.4a1 1 0 00.617.924.987.987 0 00.383.076 1 1 0 00.707-.292l4.7-4.7a2.974 2.974 0 003.716-.412 16.921 16.921 0 011.319 1.506l-6.669 6.668A1 1 0 0039.479 30h9.393A16.833 16.833 0 0149 32zm-8.309 14.584A16.868 16.868 0 0136 48.505v-6.612zM28 48.505a16.868 16.868 0 01-4.691-1.921L28 41.893zm-10.584-25.2L22.107 28H15.5a16.868 16.868 0 011.916-4.691zM15.5 36h6.612l-4.691 4.691A16.868 16.868 0 0115.5 36zm7.814-18.584A16.868 16.868 0 0128 15.5v6.612zM36 15.481a16.874 16.874 0 013 1.056V18a2.967 2.967 0 00.166.941L36 22.107zm3-1.135a18.7 18.7 0 00-3.2-.958A2.988 2.988 0 0037 11a1 1 0 012 0zM48.5 28h-6.607l4.7-4.7A16.992 16.992 0 0148.5 28zm-3.521-9.834c0-.056.017-.109.017-.166v-6a1 1 0 012 0v8.378a18.888 18.888 0 00-2.013-2.212zM49 23V12a3 3 0 00-6 0v6a1 1 0 01-2 0v-7a3 3 0 00-6 0 1 1 0 01-2 0V4.025a27.89 27.89 0 0118 7.432V23a1 1 0 01-2 0zM14 5a1.992 1.992 0 011.685.935 1 1 0 001.336.335A1.982 1.982 0 0118 6a2 2 0 012 2 1.971 1.971 0 01-.7 1.5 1 1 0 00.174 1.63 1 1 0 11-1.315.328 1 1 0 00-.614-1.517 1.982 1.982 0 01-1.233-.877 1 1 0 00-1.336-.335A1.982 1.982 0 0114 9a2 2 0 010-4zm18 55a27.988 27.988 0 01-18.449-49.045A3.9 3.9 0 0014 11a3.848 3.848 0 001.17-.182 3.937 3.937 0 00.875.667A3.052 3.052 0 0016 12a3 3 0 006 0 2.973 2.973 0 00-.643-1.844 3.9 3.9 0 00.118-4.1A27.58 27.58 0 0131 4.026V11a2.98 2.98 0 00.789 2.011A19.01 19.01 0 1050.021 26 3 3 0 0053 23v-9.491A27.979 27.979 0 0132 60zM58 2a4 4 0 104 4 4 4 0 00-4-4zm0 6a2 2 0 112-2 2 2 0 01-2 2z"/><path d="M16 20a4 4 0 10-4 4 4 4 0 004-4zm-4 2a2 2 0 112-2 2 2 0 01-2 2z"/></svg>