<svg height="512" viewBox="0 0 64 64" width="512" xmlns="http://www.w3.org/2000/svg"><path d="M57 47.5c0 .52-.06 1.02-.18 1.5-.67 2.87-3.25 5-6.32 5s-5.65-2.13-6.32-5c-.12-.48-.18-.98-.18-1.5a6.5 6.5 0 1113 0zm-4 0a2.5 2.5 0 10-5.002.002A2.5 2.5 0 0053 47.5z" fill="#656d78"/><path d="M50.5 45a2.5 2.5 0 11-.002 5.002A2.5 2.5 0 0150.5 45z" fill="#ccd1d9"/><path d="M24 27.08V35l-10.99-5.03c3.02-1.34 6.83-2.58 10.99-2.89zm2-.08c11 0 20 8 20 8H24v-7.92c.66-.05 1.33-.08 2-.08z" fill="#5d9cec"/><path d="M44 16v2h-6v-4h6z" fill="#4a89dc"/><path d="M20 47.5c0 .52-.06 1.02-.18 1.5-.67 2.87-3.25 5-6.32 5s-5.65-2.13-6.32-5c-.12-.48-.18-.98-.18-1.5a6.5 6.5 0 1113 0zm-4 0a2.5 2.5 0 00-5 0 2.5 2.5 0 005 0z" fill="#656d78"/><path d="M30 19h5.2c-1.04 1.79-2.98 3-5.2 3-3.31 0-6-2.69-6-6 0-3.32 2.69-6 6-6 2.22 0 4.16 1.2 5.2 3H30c-1.65 0-3 1.34-3 3s1.35 3 3 3z" fill="#e6e9ed"/><path d="M38 18v1h-8c-1.65 0-3-1.34-3-3s1.35-3 3-3h8v1z" fill="#5d9cec"/><circle cx="13.5" cy="47.5" fill="#ccd1d9" r="2.5"/><path d="M7.17 49H5l-4-3V34h5s2.72-2.12 7.01-4.03L24 35h22l11 1.09A5.99 5.99 0 0162 42v2h1v5h-6.18c.12-.48.18-.98.18-1.5a6.5 6.5 0 10-13 0c0 .52.06 1.02.18 1.5H19.82c.12-.48.18-.98.18-1.5a6.5 6.5 0 10-13 0c0 .52.06 1.02.18 1.5z" fill="#545c66"/><path d="M62.001 43.004a1 1 0 01-1-1 4.98 4.98 0 00-4.168-4.931 1 1 0 01.33-1.972 6.973 6.973 0 015.838 6.903 1 1 0 01-1 1z"/><path d="M62.001 45.002a1 1 0 01-1-1v-1.998a1 1 0 112 0v1.998a1 1 0 01-1 1z"/><path d="M63 50.002a1 1 0 01-1-1v-4h-1a1 1 0 110-2h2a1 1 0 011 1v5a1 1 0 01-1 1zm-18.827 0H19.826a1 1 0 110-2h24.347a1 1 0 110 2zm-39.17 0a.996.996 0 01-.599-.2l-4.004-3a1 1 0 011.199-1.599l4.004 3a.998.998 0 01-.6 1.799z"/><path d="M1 47.002a1 1 0 01-1-1V33.998a1 1 0 112 0v12.004a1 1 0 01-1 1z"/><path d="M6.002 34.998H1a1 1 0 110-2h5.002a1 1 0 110 2z"/><path d="M46.001 35.999a.996.996 0 01-.663-.252c-.087-.078-8.862-7.751-19.343-7.751-10.539 0-19.291 6.723-19.379 6.791a1 1 0 01-1.228-1.578c.378-.294 9.388-7.213 20.607-7.213 11.256 0 20.292 7.919 20.671 8.256a.999.999 0 01-.665 1.747z"/><path d="M57.002 37.087c-.032 0-.065-.002-.099-.005l-10.999-1.084a1 1 0 11.196-1.99l10.999 1.084a1 1 0 01-.097 1.995z"/><path d="M46.002 35.999H24.004a1 1 0 110-2h21.998a1 1 0 110 2z"/><path d="M24.003 35.999a.99.99 0 01-.415-.091l-11.002-5.026a1 1 0 11.832-1.819L24.42 34.09a.999.999 0 01-.417 1.909z"/><path d="M24.004 35.999a1 1 0 01-1-1v-7.918a1 1 0 112 0v7.918a1 1 0 01-1 1zM13.5 55.002c-4.136 0-7.5-3.364-7.5-7.5s3.364-7.5 7.5-7.5 7.5 3.364 7.5 7.5-3.364 7.5-7.5 7.5zm0-13c-3.032 0-5.5 2.468-5.5 5.5s2.468 5.5 5.5 5.5 5.5-2.468 5.5-5.5-2.468-5.5-5.5-5.5z"/><path d="M13.5 51.002c-1.93 0-3.5-1.57-3.5-3.5s1.57-3.5 3.5-3.5 3.5 1.57 3.5 3.5-1.57 3.5-3.5 3.5zm0-5c-.827 0-1.5.673-1.5 1.5s.673 1.5 1.5 1.5 1.5-.673 1.5-1.5-.673-1.5-1.5-1.5zm36.999 9c-4.136 0-7.5-3.364-7.5-7.5s3.364-7.5 7.5-7.5 7.5 3.364 7.5 7.5-3.364 7.5-7.5 7.5zm0-13c-3.032 0-5.5 2.468-5.5 5.5s2.468 5.5 5.5 5.5 5.5-2.468 5.5-5.5-2.468-5.5-5.5-5.5z"/><path d="M50.495 51.002c-1.93 0-3.5-1.57-3.5-3.5s1.57-3.5 3.5-3.5 3.5 1.57 3.5 3.5-1.57 3.5-3.5 3.5zm0-5c-.827 0-1.5.673-1.5 1.5s.673 1.5 1.5 1.5 1.5-.673 1.5-1.5-.673-1.5-1.5-1.5zm-43.32 4H5.004a1 1 0 110-2h2.171a1 1 0 110 2zm55.825 0h-6.176a1 1 0 110-2H63a1 1 0 110 2zM30.002 22.998c-3.859 0-7-3.14-7-7s3.141-7 7-7c2.49 0 4.813 1.34 6.061 3.497.277.478.113 1.09-.364 1.367a1.002 1.002 0 01-1.366-.365 5.02 5.02 0 00-4.33-2.499c-2.757 0-5 2.243-5 5s2.243 5 5 5a5.02 5.02 0 004.331-2.5.995.995 0 011.366-.365.998.998 0 01.364 1.366 7.023 7.023 0 01-6.062 3.499z"/><path d="M30.002 19.998c-2.206 0-4-1.794-4-4s1.794-4 4-4a1 1 0 110 2c-1.103 0-2 .897-2 2s.897 2 2 2a1 1 0 110 2z"/><path d="M38.001 19.998h-7.999a1 1 0 110-2h7.999a1 1 0 110 2zm0-6h-7.999a1 1 0 110-2h7.999a1 1 0 110 2z"/><path d="M38.001 19.998a1 1 0 01-1-1v-6a1 1 0 112 0v6a1 1 0 01-1 1z"/><path d="M44.001 18.998h-6a1 1 0 01-1-1v-4a1 1 0 011-1h6a1 1 0 011 1v4a1 1 0 01-1 1zm-5-2h4v-2h-4z"/><path d="M49 16.998h-4.999a1 1 0 110-2H49a1 1 0 110 2z"/><path d="M51 18.998a1 1 0 01-1-1c0-.551-.448-1-1-1a1 1 0 110-2c1.654 0 3 1.346 3 3a1 1 0 01-1 1zm2 11.006c-1.654 0-3-1.346-3-3.001a1 1 0 112 0 1.001 1.001 0 002 0 1 1 0 112 0 3.004 3.004 0 01-3 3.001zm8 0c-1.654 0-3-1.346-3-3.001a1 1 0 112 0c0 .552.448 1.001 1 1.001a1 1 0 110 2zm-1.999-11.009a1 1 0 01-1-1 1.001 1.001 0 00-2 0 1 1 0 11-2 0c0-1.654 1.346-3 3-3s3 1.346 3 3a1 1 0 01-1 1z"/><path d="M51 28.003a1 1 0 01-1-1v-9.005a1 1 0 112 0v9.005a1 1 0 01-1 1zm4 0a1 1 0 01-1-1v-9.008a1 1 0 112 0v9.008a1 1 0 01-1 1zm4.001 0a1 1 0 01-1-1v-9.008a1 1 0 112 0v9.008a1 1 0 01-1 1zM63 30.004h-2a1 1 0 110-2h2a1 1 0 110 2zM17.014 18.991a1 1 0 01-1-1v-3.998a1 1 0 112 0v3.998a1 1 0 01-1 1z"/><path d="M18.014 16.993h-2a1 1 0 110-2h2a1 1 0 110 2zM13.03 22c-.553 0-1.005-.448-1.005-1s.442-1 .994-1h.011a1 1 0 010 2zm6.001 1.998c-.553 0-1.005-.448-1.005-1s.442-1 .994-1h.011a1 1 0 010 2z"/></svg>