<svg height="491pt" viewBox="-1 0 491 491.392" width="491pt" xmlns="http://www.w3.org/2000/svg"><path d="M85.727 107.777H58.195v20.274h33.996c2.38 0 4.657-1.106 6.317-3.067l32.816-38.757c1.602-1.891 2.5-4.43 2.5-7.075v-15.73H117.22v7.5c0 1.96-.668 3.844-1.86 5.246L90.391 105.52c-1.23 1.445-2.91 2.257-4.664 2.257zm0 0" fill="#f9cfcf"/><path d="M92.191 132.055H58.195c-2.207 0-4-1.793-4-4v-20.278c0-2.207 1.793-4 4-4h27.532c.578 0 1.148-.3 1.617-.843l24.969-29.356c.578-.676.906-1.64.906-2.652v-7.5c0-2.207 1.793-4 4-4h16.605a4 4 0 014 4V79.16c0 3.602-1.222 7.031-3.445 9.656l-32.82 38.754c-2.41 2.852-5.825 4.485-9.368 4.485zm-29.996-8h29.996c1.204 0 2.364-.586 3.266-1.653l32.816-38.757c.989-1.165 1.551-2.801 1.551-4.489V67.422h-8.605v3.5c0 2.926-1 5.707-2.817 7.84l-24.965 29.351c-1.98 2.328-4.792 3.664-7.71 3.664H62.195zm0 0" fill="#3762cc"/><path d="M455.328 39.422H150.145c.011.164.05.316.05.484v19.032c0 .167-.043.324-.05.488h305.183c5.516 0 10 4.484 10 10v384.242c0 5.516-4.484 10-10 10h-26.664c-5.516 0-10-4.484-10-10V223.836c0-16.543-13.457-30-30-30h-10.336v20h10.336c5.516 0 10 4.484 10 10v229.828c0 16.543 13.457 30 30 30h26.664c16.543 0 30-13.457 30-30V69.422c0-16.543-13.453-30-30-30zm0 0" fill="#e0ebfc"/><path d="M455.328 487.664h-26.664c-18.75 0-34-15.25-34-34V223.836c0-3.309-2.691-6-6-6h-10.336c-2.207 0-4-1.793-4-4v-20a4 4 0 014-4h10.336c18.746 0 34 15.25 34 34v229.832c0 3.309 2.691 6 6 6h26.664c3.309 0 6-2.691 6-6V69.422c0-3.309-2.691-6-6-6H150.145a4.001 4.001 0 01-3.993-4.235 5.16 5.16 0 01.043-.43v-18.67a6.046 6.046 0 01-.043-.426 3.998 3.998 0 013.992-4.234h305.184c18.75 0 34 15.25 34 34v384.242c0 18.746-15.25 33.996-34 33.996zm-73-277.828h6.336c7.719 0 14 6.277 14 14v229.832c0 14.336 11.664 26 26 26h26.664c14.336 0 26-11.664 26-26V69.422c0-14.336-11.664-26-26-26H154.195v12h301.133c7.719 0 14 6.281 14 14v384.242c0 7.723-6.281 14-14 14h-26.664c-7.719 0-14-6.277-14-14V223.836c0-14.34-11.664-26-26-26h-6.336zm0 0" fill="#3762cc"/><path d="M370.328 224.836h-17v-42h17c4.418 0 8 3.578 8 8v26a8 8 0 01-8 8zm0 0" fill="#ffea92"/><path d="M370.328 228.836h-17c-2.207 0-4-1.793-4-4v-42a4 4 0 014-4h17c6.621 0 12 5.379 12 12v26c0 6.613-5.379 12-12 12zm-13-8h13c2.207 0 4-1.797 4-4v-26c0-2.207-1.793-4-4-4h-13zm0 0" fill="#3762cc"/><path d="M134.055 420.59l.004-.242h.011a626.528 626.528 0 013.586-43.04l-.05-.007c.074-.5.152-.985.23-1.48 4.953-41.094 13.996-81.462 27-120.368 7.547-23.738 15.094-41.941 21.691-55.566.098-.219.188-.438.286-.657a159.977 159.977 0 0113.828-24.59c.629-.949 1.203-1.792 1.754-2.585 0 0 .015-.024.046-.063 3.145-4.512 5-6.531 5.004-6.535a146.56 146.56 0 0123.543-23.406c3.203-2.106 8.86-4.746 17.176-4.746h71.168c18.777 0 34 15.222 34 34v265.808c0 18.934-15.348 34.282-34.281 34.282H168.105c-19.125 0-34.55-15.649-34.277-34.77zm0 0" fill="#f9a7a7"/><path d="M288.664 137.3h-40.5c-8.32 0-13.976 2.641-17.18 4.747a146.746 146.746 0 00-23.543 23.41s-1.863 2.023-5.004 6.531a1.927 1.927 0 01-.046.063h.004c-.551.793-1.13 1.64-1.758 2.586a160.674 160.674 0 00-13.828 24.593c-.098.22-.188.438-.282.653-6.511 13.437-13.941 31.347-21.386 54.613h70.148c28.563 0 54.477-16.871 65.914-43.043l18.125-74.152zm30.664 0l8.04 1c-2.579-.628-5.263-1-8.04-1zm0 0" fill="#b9befc"/><path d="M134.055 440.875c1.875 17.133 16.367 30.516 34.05 30.516h150.946c18.93 0 34.277-15.348 34.277-34.278v-13.722H134.055zm0 0" fill="#4671c6"/><path d="M150.195 39.906v19.032a8.486 8.486 0 01-8.484 8.488H58.195v-36h83.516c4.684-.004 8.484 3.797 8.484 8.48zm0 0" fill="#ffea92"/><path d="M58.195 94.422v-15l28.688-3.344a5.043 5.043 0 011.93 9.867zm0 0" fill="#a4c9ff"/><path d="M319.05 475.39H168.106c-10.328 0-20.011-4.046-27.261-11.406-7.25-7.355-11.164-17.093-11.016-27.421l.227-16.032v-.008l.004-.246c.003-.132.011-.261.027-.394a635.444 635.444 0 013.523-42.422c-.011-.25 0-.504.04-.754l.23-1.496c4.969-41.223 14.11-81.984 27.16-121.027 6.664-20.961 14.035-39.836 21.887-56.047l.234-.551a164.928 164.928 0 0114.176-25.211 153.577 153.577 0 011.906-2.8c2.774-3.981 4.633-6.134 5.145-6.708a151.091 151.091 0 0124.113-23.96c.094-.071.187-.137.285-.204 3.746-2.469 10.152-5.406 19.375-5.406h71.164c20.957 0 38 17.047 38 38v265.812c.004 21.11-17.168 38.282-38.273 38.282zm-180.995-54.714l-.227 16.004c-.117 8.168 2.977 15.87 8.711 21.691 5.734 5.817 13.395 9.02 21.566 9.02h150.946c16.695 0 30.277-13.582 30.277-30.278V171.301c0-16.54-13.457-30-30-30h-71.164c-7.125 0-11.98 2.152-14.84 3.996a143.036 143.036 0 00-22.758 22.66c-.05.066-.109.129-.168.191-.07.082-1.804 2.004-4.68 6.133a132.28 132.28 0 00-1.745 2.567c-5.2 7.59-9.735 15.66-13.516 24.03l-.281.65c-7.735 15.968-14.965 34.484-21.531 55.136-12.895 38.594-21.922 78.824-26.84 119.633l-.153.984c.004.164-.004.332-.023.496a629.917 629.917 0 00-3.566 42.766c0 .043-.004.086-.008.133zm0 0" fill="#3762cc"/><path d="M333.328 68.5h-13.836c-11.043 0-20 8.953-20 20v48.8h19.836c18.781 0 34 15.223 34 34V88.5c0-11.047-8.953-20-20-20zm0 0" fill="#4671c6"/><path d="M353.328 175.3a4 4 0 01-4-4c0-16.538-13.457-30-30-30h-19.836a4 4 0 01-4-4V88.5c0-13.234 10.77-24 24-24h13.836c13.235 0 24 10.766 24 24v82.8c0 2.212-1.789 4-4 4zm-49.836-42h15.836c12.184 0 23.043 5.762 30 14.704V88.5c0-8.82-7.176-16-16-16h-13.836c-8.82 0-16 7.18-16 16zm0 0" fill="#3762cc"/><path d="M369.328 435.39c0 28.72-23.281 52-52 52s-52-23.28-52-52 23.281-52 52-52 52 23.282 52 52zm0 0" fill="#b9befc"/><path d="M349.328 435.39c0 17.676-14.324 32-32 32-17.672 0-32-14.324-32-32 0-17.671 14.328-32 32-32 17.676 0 32 14.329 32 32zm0 0" fill="#ffea92"/><path d="M317.328 491.39c-30.875 0-56-25.12-56-56 0-30.874 25.125-56 56-56 30.879 0 56 25.126 56 56 0 30.88-25.121 56-56 56zm0-104c-26.465 0-48 21.536-48 48 0 26.47 21.535 48 48 48 26.469 0 48-21.53 48-48 0-26.464-21.531-48-48-48zM141.71 71.422H58.196c-2.207 0-4-1.793-4-4v-36c0-2.207 1.793-4 4-4h83.516c6.883 0 12.484 5.601 12.484 12.484v19.032c0 6.882-5.601 12.484-12.484 12.484zm-79.515-8h79.516a4.49 4.49 0 004.484-4.484V39.906a4.49 4.49 0 00-4.484-4.484H62.195zm-4 35a3.996 3.996 0 01-4-4v-15a3.997 3.997 0 013.54-3.973l28.687-3.344a9.047 9.047 0 0110.09 8.985 9.069 9.069 0 01-6.63 8.71l-30.62 8.477a3.976 3.976 0 01-1.067.145zm4-15.438v6.18l25.547-7.07c.453-.13.766-.54.766-1.004a1.038 1.038 0 00-1.164-1.035zm0 0" fill="#3762cc"/><path d="M64.195 10v8c0 3.313-2.683 6-6 6h-48c-3.312 0-6-2.688-6-6v-8c0-3.313 2.688-6 6-6h48c3.317 0 6 2.688 6 6zm0 0" fill="#a4c9ff"/><path d="M58.195 28h-48c-5.511 0-10-4.484-10-10v-8c0-5.516 4.489-10 10-10h48c5.516 0 10 4.484 10 10v8c0 5.516-4.488 10-10 10zm-48-20c-1.101 0-2 .898-2 2v8c0 1.102.899 2 2 2h48c1.102 0 2-.898 2-2v-8c0-1.102-.898-2-2-2zm0 0" fill="#3762cc"/><path d="M44.195 469.664h-20c-2.21 0-4-2.617-4-5.851v-25.368c0-4.847 2.688-8.78 6-8.78h16c3.317 0 6 3.933 6 8.78v25.368c0 3.234-1.793 5.851-4 5.851zm0 0" fill="#f9cfcf"/><path d="M44.195 473.664h-20c-4.484 0-8-4.324-8-9.851v-25.368c0-7.164 4.395-12.78 10-12.78h16c5.61 0 10 5.616 10 12.78v25.368c0 5.527-3.511 9.851-8 9.851zm-19.55-8h19.097c.2-.3.453-.945.453-1.851v-25.368c0-3.082-1.5-4.78-2-4.78h-16c-.496 0-2 1.698-2 4.78v25.368c0 .906.254 1.55.45 1.851zm0 0" fill="#3762cc"/><path d="M26.195 429.664h16c.707 0 1.371.211 2 .54V145.835h-20v284.371c.63-.328 1.293-.543 2-.543zm0 0" fill="#a4c9ff"/><path d="M24.195 434.203a3.959 3.959 0 01-2.074-.582 3.994 3.994 0 01-1.926-3.418V145.836a4 4 0 014-4h20a4 4 0 014 4v284.371a3.998 3.998 0 01-5.848 3.547 1.112 1.112 0 00-.21-.09l-15.899.004c-.027.008-.09.031-.195.086a4.03 4.03 0 01-1.848.45zm4-8.539h12V149.836h-12zm0 0" fill="#3762cc"/><path d="M10.195 137.758a8 8 0 008 8h32a8 8 0 008-8V24h-48zm0 0" fill="#ffea92"/><path d="M50.195 149.758h-32c-6.617 0-12-5.383-12-12V24c0-2.207 1.793-4 4-4h48c2.207 0 4 1.793 4 4v113.758c0 6.613-5.382 12-12 12zM14.195 28v109.758c0 2.203 1.793 4 4 4h32c2.207 0 4-1.797 4-4V28zm0 0" fill="#3762cc"/></svg>