<svg height="512" viewBox="0 0 64 64" width="512" xmlns="http://www.w3.org/2000/svg"><path d="M54.995 34.01h4V48h-4z" fill="#edab37"/><path d="M58.995 48c1.11 0 2 .89 2 2v7.01c0 3.311-2.68 6-6 6h-4c3.32 0 6-2.689 6-6V50c0-1.11-.89-2-2-2zm-4-13.99c1.11 0 2-.89 2-2V25c0-3.31-2.68-6-6-6h4c3.32 0 6 2.69 6 6v7.01c0 1.11-.89 2-2 2zm-14-8c1.11 0 2 .891 2 2a1.99 1.99 0 01-2 1.99c-1.1 0-1.99-.89-1.99-1.99 0-1.11.891-2 1.99-2z" fill="#f6bb42"/><circle cx="48.495" cy="55.5" fill="#f6bb42" r="2.5"/><path d="M56.995 50v7.01c0 3.311-2.68 6-6 6h-12c-3.31 0-6-2.689-6-6V50a2 2 0 012-2h.01V34.01c-1.109 0-2-.89-2-2V25c0-3.31 2.681-6 6-6h11.99c3.32 0 6 2.69 6 6v7.01c0 1.11-.89 2-2 2V48c1.11 0 2 .89 2 2zm-6 5.5a2.5 2.5 0 00-5 0 2.5 2.5 0 005 0zm-8-27.49c0-1.109-.89-2-2-2-1.1 0-1.99.891-1.99 2 0 1.101.891 1.99 1.99 1.99 1.11 0 2-.89 2-1.99z" fill="#ffce54"/><path d="M20.985.99h4v6h-4z" fill="#e6e9ed"/><path d="M20.985.99v6c-1.521 0-2.91.56-3.971 1.5a5.979 5.979 0 00-2.029 4.5h-9.99v-12z" fill="#ccd1d9"/><path d="M4.995 12.99h9.99v3h-9.99z" fill="#e6e9ed"/><path d="M19.005 20.01v3h-16V18c0-1.1.891-1.98 1.99-1.99v-.02h11.99v.02c1.109 0 2 .891 2 1.99z" fill="#967adc"/><path d="M26.015 59.01v-18c0-1.66-1.34-3-3-3.01h-.01a7.006 7.006 0 01-7-6.99h-10v27.98c0 .56.46 1.02 1.03 1.02h17.97c.55 0 1-.45 1-1zm2.98-18v18c0 2.21-1.79 3.99-3.99 3.99v.01H7.014a4.025 4.025 0 01-4.01-4.02V23.01h16V31c0 2.21 1.78 3.99 4 4h.01c3.32.01 6 2.69 6 6.01z" fill="#ac92ec"/><path d="M12.005 40.01a2 2 0 012 2c0 1.11-.89 2-2 2a2 2 0 110-4z" fill="#ac92ec"/><path d="M26.015 41.01v18h-.01c0 .55-.45 1-1 1H7.035c-.57 0-1.03-.46-1.03-1.02V31.01h10a7.006 7.006 0 007 6.99h.01c1.66.01 3 1.35 3 3.01zm-12.01 1a2 2 0 10-2 2c1.11 0 2-.89 2-2z" fill="#e6e9ed"/><path d="M4.998 16.991a1 1 0 01-1-1V12.99a1 1 0 112 0v3.001a1 1 0 01-1 1z"/><path d="M14.992 13.99H4.998a1 1 0 110-2h9.994a1 1 0 110 2z"/><path d="M14.992 16.99a1 1 0 01-1-1v-3a1 1 0 112 0v3a1 1 0 01-1 1z"/><path d="M14.992 13.99a1 1 0 01-1-1c0-3.858 3.14-6.998 6.998-6.998a1 1 0 110 2 5.004 5.004 0 00-4.998 4.998 1 1 0 01-1 1z"/><path d="M24.988 7.988h-3.994a1 1 0 01-1-1V.992a1 1 0 011-1h3.994a1 1 0 011 1v5.996a1 1 0 01-1 1zm-2.994-2h1.994V1.992h-1.994z"/><path d="M20.994 1.992H2.996a1 1 0 110-2h17.998a1 1 0 110 2z"/><path d="M4.998 13.99a1 1 0 01-1-1V.992a1 1 0 112 0V12.99a1 1 0 01-1 1zm11.994 3H5a1 1 0 110-2h11.992a1 1 0 110 2zm5-2.999a6.002 6.002 0 01-5.953-5.256l-.017-.145a1 1 0 01.898-1.092 1.008 1.008 0 011.092.898l.008.067a4.005 4.005 0 003.972 3.526 1 1 0 010 2.002zM3.014 59.986a1 1 0 01-1-1V18.005a1 1 0 112 0v40.981a1 1 0 01-1 1zM19.01 31.998a1 1 0 01-1-1v-10.99a1 1 0 112 0v10.99a1 1 0 01-1 1zM29 60.012a1 1 0 01-1-1V41.009a1 1 0 112 0v18.003a1 1 0 01-1 1zm-3.992 3.996H7.018a1 1 0 110-2h17.99a1 1 0 110 2z"/><path d="M3.014 19.005a1 1 0 01-1-1A3 3 0 015.01 15.01a1 1 0 110 2 .997.997 0 00-.996.995 1 1 0 01-1 1zm15.974 0a1 1 0 01-1-1 .997.997 0 00-.996-.995 1 1 0 110-2 3 3 0 012.996 2.995 1 1 0 01-1 1zM7.035 64.008a5.027 5.027 0 01-5.021-5.021 1 1 0 112 0 3.024 3.024 0 003.021 3.021 1 1 0 110 2z"/><path d="M7.035 61.008a2.024 2.024 0 01-2.021-2.021 1 1 0 112 0c0 .013.009.021.021.021a1 1 0 110 2zm17.973 2.995a1 1 0 110-2 2.994 2.994 0 002.99-2.991 1 1 0 112 0 4.996 4.996 0 01-4.99 4.991z"/><path d="M25.008 61.011a1 1 0 110-2 1 1 0 112 .001 2.002 2.002 0 01-2 1.999zm-1.99-25.006a5.013 5.013 0 01-5.008-5.007 1 1 0 112 0 3.011 3.011 0 003.008 3.007 1 1 0 110 2z"/><path d="M23.018 39.004c-4.415 0-8.008-3.592-8.008-8.006a1 1 0 112 0 6.014 6.014 0 006.008 6.006 1 1 0 110 2z"/><path d="M29.016 42.009a1 1 0 01-1-1 5.013 5.013 0 00-5.008-5.008 1 1 0 110-2 7.016 7.016 0 017.008 7.008 1 1 0 01-1 1z"/><path d="M26.018 42.008a1 1 0 01-1-1 2.012 2.012 0 00-2.01-2.009 1 1 0 110-2 4.014 4.014 0 014.01 4.009 1 1 0 01-1 1zm-7.008-21a1 1 0 01-1-.989l-.021-2.003a1 1 0 01.989-1.011h.011a1 1 0 011 .989l.021 2.003a1 1 0 01-.989 1.011h-.011z"/><path d="M26.018 60.012a1 1 0 01-1-1V41.008a1 1 0 112 0v18.004a1 1 0 01-1 1z"/><path d="M25.008 61.008H7.035a1 1 0 110-2h17.973a1 1 0 110 2z"/><path d="M6.014 59.986a1 1 0 01-1-1L5.01 31.007a1 1 0 112 0l.004 27.979a1 1 0 01-1 1z"/><path d="M16.01 32.007h-10a1 1 0 110-2h10a1 1 0 110 2zm-4 13.005c-1.654 0-3-1.346-3-3s1.346-3 3-3 3 1.346 3 3-1.346 3-3 3zm0-4a1 1 0 100 2 1 1 0 000-2zm10 7.995h-12a1 1 0 110-2h12a1 1 0 110 2zm0 3h-12a1 1 0 110-2h12a1 1 0 110 2zm-6.006 3H10.01a1 1 0 110-2h5.994a1 1 0 110 2zm3.008-30.999H3.006a1 1 0 110-2h16.006a1 1 0 110 2zm19.992 39.999c-3.859 0-7-3.141-7-7a1 1 0 112 0c0 2.757 2.243 5 5 5a1 1 0 110 2z"/><path d="M33.004 58.007a1 1 0 01-1-1v-7.008a1 1 0 112 0v7.008a1 1 0 01-1 1z"/><path d="M33.004 50.999a1 1 0 01-1-1c0-1.654 1.346-3 3-3a1 1 0 110 2 1 1 0 00-1 1 1 1 0 01-1 1zM51 64.007a1 1 0 110-2c2.757 0 5-2.243 5-5a1 1 0 112 0c0 3.859-3.141 7-7 7z"/><path d="M57 58.007a1 1 0 01-1-1v-7.008a1 1 0 112 0v7.008a1 1 0 01-1 1z"/><path d="M57 50.999a1 1 0 01-1-1 1 1 0 00-1-1 1 1 0 110-2c1.654 0 3 1.346 3 3a1 1 0 01-1 1zm-1.998 13.008H39.004a1 1 0 110-2h15.998a1 1 0 110 2zm2-38.004a1 1 0 01-1-1c0-2.757-2.243-5-5-5a1 1 0 110-2c3.859 0 7 3.141 7 7a1 1 0 01-1 1z"/><path d="M57.002 33.011a1 1 0 01-1-1v-7.008a1 1 0 112 0v7.008a1 1 0 01-1 1z"/><path d="M55.002 35.011a1 1 0 110-2 1 1 0 001-1 1 1 0 112 0c0 1.654-1.346 3-3 3zm-21.996-9.008a1 1 0 01-1-1c0-3.859 3.141-7 7-7a1 1 0 110 2c-2.757 0-5 2.243-5 5a1 1 0 01-1 1z"/><path d="M33.006 33.011a1 1 0 01-1-1v-7.008a1 1 0 112 0v7.008a1 1 0 01-1 1z"/><path d="M35.006 35.011c-1.654 0-3-1.346-3-3a1 1 0 112 0 1 1 0 001 1 1 1 0 110 2zm19.998-15.008H39.006a1 1 0 110-2h15.998a1 1 0 110 2z"/><path d="M35.006 48.999a1 1 0 01-1-1V34.011a1 1 0 112 0v13.988a1 1 0 01-1 1zm19.996 0a1 1 0 01-1-1V34.011a1 1 0 112 0v13.988a1 1 0 01-1 1zm0 15.008a1 1 0 110-2c2.757 0 5-2.243 5-5a1 1 0 112 0c0 3.859-3.141 7-7 7z"/><path d="M61.002 58.007a1 1 0 01-1-1v-7.008a1 1 0 112 0v7.008a1 1 0 01-1 1z"/><path d="M61.002 50.999a1 1 0 01-1-1 1 1 0 00-1-1 1 1 0 110-2c1.654 0 3 1.346 3 3a1 1 0 01-1 1zm.002-24.996a1 1 0 01-1-1c0-2.757-2.243-5-5-5a1 1 0 110-2c3.859 0 7 3.141 7 7a1 1 0 01-1 1z"/><path d="M61.004 33.011a1 1 0 01-1-1v-7.008a1 1 0 112 0v7.008a1 1 0 01-1 1z"/><path d="M59.004 35.011a1 1 0 110-2 1 1 0 001-1 1 1 0 112 0c0 1.654-1.346 3-3 3z"/><path d="M59.004 48.999a1 1 0 01-1-1V34.011a1 1 0 112 0v13.988a1 1 0 01-1 1z"/><path d="M59.002 48.999H55a1 1 0 110-2h4.002a1 1 0 110 2zm.002-13.988h-4.002a1 1 0 110-2h4.002a1 1 0 110 2zm-18-4.006c-1.653 0-2.998-1.346-2.998-2.999s1.345-2.999 2.998-2.999c1.654 0 3 1.346 3 2.999s-1.346 2.999-3 2.999zm0-3.998a1 1 0 10.002 1.998 1 1 0 00-.002-1.998zM48.504 59c-1.93 0-3.5-1.569-3.5-3.499s1.57-3.499 3.5-3.499c1.929 0 3.498 1.569 3.498 3.499S50.433 59 48.504 59zm0-4.998c-.827 0-1.5.673-1.5 1.499S47.677 57 48.504 57c.826 0 1.498-.673 1.498-1.499s-.672-1.499-1.498-1.499zm-7.468-2.003c-.553 0-1.005-.447-1.005-1s.442-1 .994-1h.011a1 1 0 110 2zm8.008-7.007c-.553 0-1.005-.447-1.005-1s.442-1 .994-1h.011a1 1 0 110 2zm-7.006-6.006c-.553 0-1.005-.447-1.005-1s.442-1 .994-1h.011a1 1 0 110 2zm9.008-9.008c-.553 0-1.005-.447-1.005-1s.442-1 .994-1h.011a1 1 0 110 2z"/></svg>