<?xml version="1.0" encoding="utf-8"?><!DOCTYPE svg PUBLIC "-//W3C//DTD SVG 1.1//EN" "http://www.w3.org/Graphics/SVG/1.1/DTD/svg11.dtd"><svg viewBox="0 0 513.64 513.64" xmlns="http://www.w3.org/2000/svg" xmlns:xlink="http://www.w3.org/1999/xlink"><style>:root>svg{display:none}:root>svg:target{display:block}</style><svg viewBox="0 0 64 64" data-name="Layer 3" id="engine" xmlns="http://www.w3.org/2000/svg"><path d="M50 34a4 4 0 00-4-4H14a4 4 0 00-4 4v16.561A3.439 3.439 0 0013.439 54a3.439 3.439 0 012.589 1.175l4 4.567A6.613 6.613 0 0025 62h21a4 4 0 004-4z" fill="#326c56"/><path d="M46 30H14a3.961 3.961 0 00-1.64.36A3.961 3.961 0 0012 32v16.561A3.439 3.439 0 0015.439 52a3.441 3.441 0 012.589 1.174l4 4.568A6.613 6.613 0 0027 60h21a3.961 3.961 0 001.64-.36A3.961 3.961 0 0050 58V34a4 4 0 00-4-4z" fill="#3a7c63"/><path d="M46 30H14a4 4 0 00-4 4v2h40v-2a4 4 0 00-4-4z" fill="#43525b"/><path d="M46 30H16a4 4 0 00-4 4v2h38v-2a4 4 0 00-4-4z" fill="#69737a"/><path d="M6 42h4v4H6z" fill="#43525b"/><path d="M2 37h4v14H2zM56 31h5.967v18H56z" fill="#9e6c2e"/><path d="M50 37h6v6h-6zM45 58h-8a5.989 5.989 0 01-6-6v-8a2.006 2.006 0 012-2 2.015 2.015 0 012 2v8a2.006 2.006 0 002 2h2.34A6 6 0 0045 58z" fill="#43525b"/><g fill="#90979c"><path d="M37 58h-8a6.009 6.009 0 01-6-6v-8a2.006 2.006 0 012-2 2.015 2.015 0 012 2v8a2.006 2.006 0 002 2h2.34A6 6 0 0037 58zM59 56a2.015 2.015 0 01-2 2H45a5.989 5.989 0 01-6-6v-8a2.006 2.006 0 012-2 2.015 2.015 0 012 2v8a2.006 2.006 0 002 2h12a2.006 2.006 0 012 2zM15 30v-1a3 3 0 013-3 3 3 0 013 3v1M23 30v-1a3 3 0 013-3 3 3 0 013 3v1M39 30v-1a3 3 0 013-3 3 3 0 013 3v1M31 30v-1a3 3 0 013-3 3 3 0 013 3v1M13 39h2v2h-2zM45 39h2v2h-2zM13 49h2v2h-2z"/></g><path d="M25 2h14v4H25z" fill="#245b93"/><path d="M25 6l-2 2v3h18V8l-2-2" fill="#5197cd"/><path d="M11.808 23.606l-1.414-1.414 1.414-1.414 1.414 1.414zm2.828-2.828l-1.414-1.414 1.414-1.414 1.414 1.414zm2.828-2.828l-1.414-1.414 1.414-1.414 1.414 1.414zm2.829-2.829l-1.414-1.414 1.414-1.414 1.414 1.414zM52.192 23.606l-1.414-1.414 1.414-1.414 1.414 1.414zm-2.828-2.828l-1.414-1.414 1.414-1.414 1.414 1.414zm-2.828-2.828l-1.414-1.414 1.414-1.414 1.414 1.414zm-2.829-2.829l-1.414-1.414 1.414-1.414 1.414 1.414zM33 24h-2v-2h2zm0-4h-2v-2h2zm0-4h-2v-2h2zM23.422 23.392l-1.789-.892.895-1.789 1.789.9zm1.789-3.579l-1.789-.893.894-1.789 1.789.893zM27 16.236l-1.789-.894.894-1.789 1.79.894zM40.578 23.392l-.9-1.789 1.789-.9.895 1.789zm-1.789-3.579l-.889-1.789 1.789-.893.894 1.789zM37 16.236l-.9-1.789 1.79-.894.894 1.789z" fill="#8dbde2"/><path d="M59 31h2.967v18H59z" fill="#d99b44"/><path d="M27 2h12v4H27z" fill="#2d6eaf"/><path d="M39 6H27l-2 2v3h16V8z" fill="#8dbde2"/><path d="M2 52h4a1 1 0 001-1v-4h2v3.561A4.444 4.444 0 0013.439 55a2.44 2.44 0 011.836.833l4 4.567A7.607 7.607 0 0025 63h21a5.009 5.009 0 004.9-4H57a3 3 0 000-6h-6v-9h4v5a1 1 0 001 1h5.967a1 1 0 001-1V31a1 1 0 00-1-1H56a1 1 0 00-1 1v5h-4v-2a5.006 5.006 0 00-5-5 4 4 0 00-8 0 4 4 0 00-8 0 4 4 0 00-8 0 4 4 0 00-8 0 5.006 5.006 0 00-5 5v7H7v-4a1 1 0 00-1-1H2a1 1 0 00-1 1v14a1 1 0 001 1zm55-20h3.967v16H57zm1 24a1 1 0 01-1 1H45a5.006 5.006 0 01-5-5v-8a1 1 0 012 0v8a3 3 0 003 3h12a1 1 0 011 1zm-29-1h1.685a7.016 7.016 0 001.426 2H29a5.006 5.006 0 01-5-5v-8a1 1 0 012 0v8a3 3 0 003 3zm3-3v-8a1 1 0 012 0v8a3 3 0 003 3h1.685a7.036 7.036 0 001.42 2H37a5.006 5.006 0 01-5-5zm13 1a1 1 0 01-1-1v-8a3 3 0 00-6 0v8a7.026 7.026 0 00.08 1H37a1 1 0 01-1-1v-8a3 3 0 00-6 0v8a7.026 7.026 0 00.08 1H29a1 1 0 01-1-1v-8a3 3 0 00-6 0v8a7.008 7.008 0 007 7h19.816A3 3 0 0146 61H25a5.611 5.611 0 01-4.223-1.916l-4-4.567A4.439 4.439 0 0013.439 53 2.442 2.442 0 0111 50.561V37h38v16zm10-15v4h-4v-4zM42 27a2 2 0 012 2h-4a2 2 0 012-2zm-8 0a2 2 0 012 2h-4a2 2 0 012-2zm-8 0a2 2 0 012 2h-4a2 2 0 012-2zm-8 0a2 2 0 012 2h-4a2 2 0 012-2zm-4 4h32a3 3 0 013 3v1H11v-1a3 3 0 013-3zM9 43v2H7v-2zm-6-5h2v12H3z"/><path d="M13 39h2v2h-2zM45 39h2v2h-2zM13 49h2v2h-2zM24 2v3.586l-1.707 1.707A1 1 0 0022 8v3a1 1 0 001 1h18a1 1 0 001-1V8a1 1 0 00-.293-.707L40 5.586V2a1 1 0 00-1-1H25a1 1 0 00-1 1zm16 8H24V8.414L25.414 7h13.172L40 8.414zM26 3h12v2H26zM16.047 16.536l1.414-1.414 1.414 1.414-1.414 1.414zM18.875 13.708l1.414-1.414 1.414 1.414-1.414 1.414zM10.39 22.19l1.414-1.414 1.414 1.414-1.414 1.414zM13.218 19.364l1.414-1.414 1.414 1.414-1.414 1.414zM42.287 13.71l1.414-1.414 1.414 1.414-1.414 1.414zM47.943 19.367l1.414-1.414 1.414 1.414-1.414 1.414zM50.77 22.196l1.413-1.414 1.414 1.414-1.414 1.414zM45.116 16.539l1.414-1.414 1.414 1.414-1.414 1.414zM31 14h2v2h-2zM31 18h2v2h-2zM31 22h2v1.999h-2zM25.2 15.35l.893-1.789 1.788.894-.894 1.788zM21.62 22.502l.894-1.788 1.788.894-.894 1.788zM23.433 18.914l.894-1.79 1.79.894-.894 1.79zM37.912 18.034l1.79-.894.894 1.79-1.79.894zM36.086 14.448l1.788-.894.894 1.788-1.788.894zM39.662 21.603l1.788-.894.894 1.788-1.788.894z"/></svg><svg viewBox="0 0 425.963 425.963" id="geo" xmlns="http://www.w3.org/2000/svg"><path d="M213.285 0h-.608C139.114 0 79.268 59.826 79.268 133.361c0 48.202 21.952 111.817 65.246 189.081 32.098 57.281 64.646 101.152 64.972 101.588a4.8 4.8 0 003.847 1.934c.043 0 .087 0 .13-.002a4.805 4.805 0 003.868-2.143c.321-.486 32.637-49.287 64.517-108.976 43.03-80.563 64.848-141.624 64.848-181.482C346.693 59.825 286.846 0 213.285 0zm61.58 136.62c0 34.124-27.761 61.884-61.885 61.884-34.123 0-61.884-27.761-61.884-61.884s27.761-61.884 61.884-61.884c34.124 0 61.885 27.761 61.885 61.884z"/></svg><svg fill="none" viewBox="0 0 21 11" id="left-arrow" xmlns="http://www.w3.org/2000/svg"><path d="M.24 6.08l.001.001 4.287 4.266a.82.82 0 001.157-1.163L2.807 6.32H20.18a.82.82 0 000-1.64H2.807l2.878-2.864A.82.82 0 104.528.653L.24 4.919a.821.821 0 000 1.162z" fill="#000"/></svg><svg viewBox="0 0 64 64" id="logo" xmlns="http://www.w3.org/2000/svg"><path d="M32 55v2a24.851 24.851 0 009.324-1.8l-.746-1.856A22.867 22.867 0 0132 55zM42.606 52.414l.924 1.774a25.088 25.088 0 002.037-1.186l-1.086-1.68c-.608.394-1.239.761-1.875 1.092zM33 28.142V26h-2v2.142A4 4 0 0028.142 31H26v2h2.142A4 4 0 0031 35.858V38h2v-2.142A4 4 0 0035.858 33H38v-2h-2.142A4 4 0 0033 28.142zM32 34a2 2 0 112-2 2 2 0 01-2 2z"/><path d="M32 2a29.614 29.614 0 00-12.042 2.534A3.948 3.948 0 0018 4a3.867 3.867 0 00-1.169.181 3.989 3.989 0 10-5.324 5.919A29.99 29.99 0 1032 2zm14.584 38.691L41.893 36h6.612a16.868 16.868 0 01-1.921 4.691zM49 32a17.138 17.138 0 01-.128 2h-9.393a1 1 0 00-.708 1.707l6.667 6.666a17.1 17.1 0 01-3.065 3.065l-6.666-6.667a1 1 0 00-1.707.708v9.393a15.689 15.689 0 01-4 0v-9.393a1 1 0 00-1.707-.708l-6.666 6.667a17.1 17.1 0 01-3.065-3.065l6.667-6.666A1 1 0 0024.521 34h-9.393a15.689 15.689 0 010-4h9.393a1 1 0 00.708-1.707l-6.667-6.666a17.1 17.1 0 013.065-3.065l6.666 6.667a1 1 0 00.707.292.987.987 0 00.383-.076 1 1 0 00.617-.924v-9.393a16.322 16.322 0 014-.01v9.4a1 1 0 00.617.924.987.987 0 00.383.076 1 1 0 00.707-.292l4.7-4.7a2.974 2.974 0 003.716-.412 16.921 16.921 0 011.319 1.506l-6.669 6.668A1 1 0 0039.479 30h9.393A16.833 16.833 0 0149 32zm-8.309 14.584A16.868 16.868 0 0136 48.505v-6.612zM28 48.505a16.868 16.868 0 01-4.691-1.921L28 41.893zm-10.584-25.2L22.107 28H15.5a16.868 16.868 0 011.916-4.691zM15.5 36h6.612l-4.691 4.691A16.868 16.868 0 0115.5 36zm7.814-18.584A16.868 16.868 0 0128 15.5v6.612zM36 15.481a16.874 16.874 0 013 1.056V18a2.967 2.967 0 00.166.941L36 22.107zm3-1.135a18.7 18.7 0 00-3.2-.958A2.988 2.988 0 0037 11a1 1 0 012 0zM48.5 28h-6.607l4.7-4.7A16.992 16.992 0 0148.5 28zm-3.521-9.834c0-.056.017-.109.017-.166v-6a1 1 0 012 0v8.378a18.888 18.888 0 00-2.013-2.212zM49 23V12a3 3 0 00-6 0v6a1 1 0 01-2 0v-7a3 3 0 00-6 0 1 1 0 01-2 0V4.025a27.89 27.89 0 0118 7.432V23a1 1 0 01-2 0zM14 5a1.992 1.992 0 011.685.935 1 1 0 001.336.335A1.982 1.982 0 0118 6a2 2 0 012 2 1.971 1.971 0 01-.7 1.5 1 1 0 00.174 1.63 1 1 0 11-1.315.328 1 1 0 00-.614-1.517 1.982 1.982 0 01-1.233-.877 1 1 0 00-1.336-.335A1.982 1.982 0 0114 9a2 2 0 010-4zm18 55a27.988 27.988 0 01-18.449-49.045A3.9 3.9 0 0014 11a3.848 3.848 0 001.17-.182 3.937 3.937 0 00.875.667A3.052 3.052 0 0016 12a3 3 0 006 0 2.973 2.973 0 00-.643-1.844 3.9 3.9 0 00.118-4.1A27.58 27.58 0 0131 4.026V11a2.98 2.98 0 00.789 2.011A19.01 19.01 0 1050.021 26 3 3 0 0053 23v-9.491A27.979 27.979 0 0132 60zM58 2a4 4 0 104 4 4 4 0 00-4-4zm0 6a2 2 0 112-2 2 2 0 01-2 2z"/><path d="M16 20a4 4 0 10-4 4 4 4 0 004-4zm-4 2a2 2 0 112-2 2 2 0 01-2 2z"/></svg><svg viewBox="0 0 513.64 513.64" id="phone" xmlns="http://www.w3.org/2000/svg"><path d="M499.66 376.96l-71.68-71.68c-25.6-25.6-69.12-15.359-79.36 17.92-7.68 23.041-33.28 35.841-56.32 30.72-51.2-12.8-120.32-79.36-133.12-133.12-7.68-23.041 7.68-48.641 30.72-56.32 33.28-10.24 43.52-53.76 17.92-79.36l-71.68-71.68c-20.48-17.92-51.2-17.92-69.12 0L18.38 62.08c-48.64 51.2 5.12 186.88 125.44 307.2s256 176.641 307.2 125.44l48.64-48.64c17.921-20.48 17.921-51.2 0-69.12z"/></svg><svg viewBox="0 0 64 64" id="polisher" xmlns="http://www.w3.org/2000/svg"><path d="M57 47.5c0 .52-.06 1.02-.18 1.5-.67 2.87-3.25 5-6.32 5s-5.65-2.13-6.32-5c-.12-.48-.18-.98-.18-1.5a6.5 6.5 0 1113 0zm-4 0a2.5 2.5 0 10-5.002.002A2.5 2.5 0 0053 47.5z" fill="#656d78"/><path d="M50.5 45a2.5 2.5 0 11-.002 5.002A2.5 2.5 0 0150.5 45z" fill="#ccd1d9"/><path d="M24 27.08V35l-10.99-5.03c3.02-1.34 6.83-2.58 10.99-2.89zM26 27c11 0 20 8 20 8H24v-7.92c.66-.05 1.33-.08 2-.08z" fill="#5d9cec"/><path d="M44 16v2h-6v-4h6z" fill="#4a89dc"/><path d="M20 47.5c0 .52-.06 1.02-.18 1.5-.67 2.87-3.25 5-6.32 5s-5.65-2.13-6.32-5c-.12-.48-.18-.98-.18-1.5a6.5 6.5 0 1113 0zm-4 0a2.5 2.5 0 00-5 0 2.5 2.5 0 005 0z" fill="#656d78"/><path d="M30 19h5.2c-1.04 1.79-2.98 3-5.2 3-3.31 0-6-2.69-6-6 0-3.32 2.69-6 6-6 2.22 0 4.16 1.2 5.2 3H30c-1.65 0-3 1.34-3 3s1.35 3 3 3z" fill="#e6e9ed"/><path d="M38 18v1h-8c-1.65 0-3-1.34-3-3s1.35-3 3-3h8v1z" fill="#5d9cec"/><circle cx="13.5" cy="47.5" fill="#ccd1d9" r="2.5"/><path d="M7.17 49H5l-4-3V34h5s2.72-2.12 7.01-4.03L24 35h22l11 1.09A5.99 5.99 0 0162 42v2h1v5h-6.18c.12-.48.18-.98.18-1.5a6.5 6.5 0 10-13 0c0 .52.06 1.02.18 1.5H19.82c.12-.48.18-.98.18-1.5a6.5 6.5 0 10-13 0c0 .52.06 1.02.18 1.5z" fill="#545c66"/><g><path d="M62.001 43.004a1 1 0 01-1-1 4.98 4.98 0 00-4.168-4.931 1 1 0 01.33-1.972 6.973 6.973 0 015.838 6.903 1 1 0 01-1 1z"/><path d="M62.001 45.002a1 1 0 01-1-1v-1.998a1 1 0 112 0v1.998a1 1 0 01-1 1z"/><path d="M63 50.002a1 1 0 01-1-1v-4h-1a1 1 0 110-2h2a1 1 0 011 1v5a1 1 0 01-1 1zM44.173 50.002H19.826a1 1 0 110-2h24.347a1 1 0 110 2zM5.003 50.002a.996.996 0 01-.599-.2l-4.004-3a1 1 0 011.199-1.599l4.004 3a.998.998 0 01-.6 1.799z"/><path d="M1 47.002a1 1 0 01-1-1V33.998a1 1 0 112 0v12.004a1 1 0 01-1 1z"/><path d="M6.002 34.998H1a1 1 0 110-2h5.002a1 1 0 110 2z"/><path d="M46.001 35.999a.996.996 0 01-.663-.252c-.087-.078-8.862-7.751-19.343-7.751-10.539 0-19.291 6.723-19.379 6.791a1 1 0 01-1.228-1.578c.378-.294 9.388-7.213 20.607-7.213 11.256 0 20.292 7.919 20.671 8.256a.999.999 0 01-.665 1.747z"/><path d="M57.002 37.087c-.032 0-.065-.002-.099-.005l-10.999-1.084a1 1 0 11.196-1.99l10.999 1.084a1 1 0 01-.097 1.995z"/><path d="M46.002 35.999H24.004a1 1 0 110-2h21.998a1 1 0 110 2z"/><path d="M24.003 35.999a.99.99 0 01-.415-.091l-11.002-5.026a1 1 0 11.832-1.819L24.42 34.09a.999.999 0 01-.417 1.909z"/><path d="M24.004 35.999a1 1 0 01-1-1v-7.918a1 1 0 112 0v7.918a1 1 0 01-1 1zM13.5 55.002c-4.136 0-7.5-3.364-7.5-7.5s3.364-7.5 7.5-7.5 7.5 3.364 7.5 7.5-3.364 7.5-7.5 7.5zm0-13c-3.032 0-5.5 2.468-5.5 5.5s2.468 5.5 5.5 5.5 5.5-2.468 5.5-5.5-2.468-5.5-5.5-5.5z"/><path d="M13.5 51.002c-1.93 0-3.5-1.57-3.5-3.5s1.57-3.5 3.5-3.5 3.5 1.57 3.5 3.5-1.57 3.5-3.5 3.5zm0-5c-.827 0-1.5.673-1.5 1.5s.673 1.5 1.5 1.5 1.5-.673 1.5-1.5-.673-1.5-1.5-1.5zM50.499 55.002c-4.136 0-7.5-3.364-7.5-7.5s3.364-7.5 7.5-7.5 7.5 3.364 7.5 7.5-3.364 7.5-7.5 7.5zm0-13c-3.032 0-5.5 2.468-5.5 5.5s2.468 5.5 5.5 5.5 5.5-2.468 5.5-5.5-2.468-5.5-5.5-5.5z"/><path d="M50.495 51.002c-1.93 0-3.5-1.57-3.5-3.5s1.57-3.5 3.5-3.5 3.5 1.57 3.5 3.5-1.57 3.5-3.5 3.5zm0-5c-.827 0-1.5.673-1.5 1.5s.673 1.5 1.5 1.5 1.5-.673 1.5-1.5-.673-1.5-1.5-1.5zM7.175 50.002H5.004a1 1 0 110-2h2.171a1 1 0 110 2zM63 50.002h-6.176a1 1 0 110-2H63a1 1 0 110 2z"/><g><path d="M30.002 22.998c-3.859 0-7-3.14-7-7s3.141-7 7-7c2.49 0 4.813 1.34 6.061 3.497.277.478.113 1.09-.364 1.367a1.002 1.002 0 01-1.366-.365 5.02 5.02 0 00-4.33-2.499c-2.757 0-5 2.243-5 5s2.243 5 5 5a5.02 5.02 0 004.331-2.5.995.995 0 011.366-.365.998.998 0 01.364 1.366 7.023 7.023 0 01-6.062 3.499z"/><path d="M30.002 19.998c-2.206 0-4-1.794-4-4s1.794-4 4-4a1 1 0 110 2c-1.103 0-2 .897-2 2s.897 2 2 2a1 1 0 110 2z"/><path d="M38.001 19.998h-7.999a1 1 0 110-2h7.999a1 1 0 110 2zM38.001 13.998h-7.999a1 1 0 110-2h7.999a1 1 0 110 2z"/><path d="M38.001 19.998a1 1 0 01-1-1v-6a1 1 0 112 0v6a1 1 0 01-1 1z"/><path d="M44.001 18.998h-6a1 1 0 01-1-1v-4a1 1 0 011-1h6a1 1 0 011 1v4a1 1 0 01-1 1zm-5-2h4v-2h-4z"/><path d="M49 16.998h-4.999a1 1 0 110-2H49a1 1 0 110 2z"/><path d="M51 18.998a1 1 0 01-1-1c0-.551-.448-1-1-1a1 1 0 110-2c1.654 0 3 1.346 3 3a1 1 0 01-1 1zM53 30.004c-1.654 0-3-1.346-3-3.001a1 1 0 112 0 1.001 1.001 0 002 0 1 1 0 112 0 3.004 3.004 0 01-3 3.001zM61 30.004c-1.654 0-3-1.346-3-3.001a1 1 0 112 0c0 .552.448 1.001 1 1.001a1 1 0 110 2z"/><g><path d="M59.001 18.995a1 1 0 01-1-1 1.001 1.001 0 00-2 0 1 1 0 11-2 0c0-1.654 1.346-3 3-3s3 1.346 3 3a1 1 0 01-1 1z"/></g><g><path d="M51 28.003a1 1 0 01-1-1v-9.005a1 1 0 112 0v9.005a1 1 0 01-1 1z"/></g><g><path d="M55 28.003a1 1 0 01-1-1v-9.008a1 1 0 112 0v9.008a1 1 0 01-1 1z"/></g><g><path d="M59.001 28.003a1 1 0 01-1-1v-9.008a1 1 0 112 0v9.008a1 1 0 01-1 1z"/></g><g><path d="M63 30.004h-2a1 1 0 110-2h2a1 1 0 110 2z"/></g></g><g><path d="M17.014 18.991a1 1 0 01-1-1v-3.998a1 1 0 112 0v3.998a1 1 0 01-1 1z"/><path d="M18.014 16.993h-2a1 1 0 110-2h2a1 1 0 110 2z"/></g><g><path d="M13.03 22c-.553 0-1.005-.448-1.005-1s.442-1 .994-1h.011a1 1 0 010 2z"/></g><g><path d="M19.031 23.998c-.553 0-1.005-.448-1.005-1s.442-1 .994-1h.011a1 1 0 010 2z"/></g></g></svg><svg viewBox="-1 0 491 491.392" id="pressure-water" xmlns="http://www.w3.org/2000/svg"><path d="M85.727 107.777H58.195v20.274h33.996c2.38 0 4.657-1.106 6.317-3.067l32.816-38.757c1.602-1.891 2.5-4.43 2.5-7.075v-15.73H117.22v7.5c0 1.96-.668 3.844-1.86 5.246L90.391 105.52c-1.23 1.445-2.91 2.257-4.664 2.257zm0 0" fill="#f9cfcf"/><path d="M92.191 132.055H58.195c-2.207 0-4-1.793-4-4v-20.278c0-2.207 1.793-4 4-4h27.532c.578 0 1.148-.3 1.617-.843l24.969-29.356c.578-.676.906-1.64.906-2.652v-7.5c0-2.207 1.793-4 4-4h16.605a4 4 0 014 4V79.16c0 3.602-1.222 7.031-3.445 9.656l-32.82 38.754c-2.41 2.852-5.825 4.485-9.368 4.485zm-29.996-8h29.996c1.204 0 2.364-.586 3.266-1.653l32.816-38.757c.989-1.165 1.551-2.801 1.551-4.489V67.422h-8.605v3.5c0 2.926-1 5.707-2.817 7.84l-24.965 29.351c-1.98 2.328-4.792 3.664-7.71 3.664H62.195zm0 0" fill="#3762cc"/><path d="M455.328 39.422H150.145c.011.164.05.316.05.484v19.032c0 .167-.043.324-.05.488h305.183c5.516 0 10 4.484 10 10v384.242c0 5.516-4.484 10-10 10h-26.664c-5.516 0-10-4.484-10-10V223.836c0-16.543-13.457-30-30-30h-10.336v20h10.336c5.516 0 10 4.484 10 10v229.828c0 16.543 13.457 30 30 30h26.664c16.543 0 30-13.457 30-30V69.422c0-16.543-13.453-30-30-30zm0 0" fill="#e0ebfc"/><path d="M455.328 487.664h-26.664c-18.75 0-34-15.25-34-34V223.836c0-3.309-2.691-6-6-6h-10.336c-2.207 0-4-1.793-4-4v-20a4 4 0 014-4h10.336c18.746 0 34 15.25 34 34v229.832c0 3.309 2.691 6 6 6h26.664c3.309 0 6-2.691 6-6V69.422c0-3.309-2.691-6-6-6H150.145a4.001 4.001 0 01-3.993-4.235 5.16 5.16 0 01.043-.43V40.087a6.046 6.046 0 01-.043-.426 3.998 3.998 0 013.992-4.234h305.184c18.75 0 34 15.25 34 34v384.242c0 18.746-15.25 33.996-34 33.996zm-73-277.828h6.336c7.719 0 14 6.277 14 14v229.832c0 14.336 11.664 26 26 26h26.664c14.336 0 26-11.664 26-26V69.422c0-14.336-11.664-26-26-26H154.195v12h301.133c7.719 0 14 6.281 14 14v384.242c0 7.723-6.281 14-14 14h-26.664c-7.719 0-14-6.277-14-14V223.836c0-14.34-11.664-26-26-26h-6.336zm0 0" fill="#3762cc"/><path d="M370.328 224.836h-17v-42h17c4.418 0 8 3.578 8 8v26a8 8 0 01-8 8zm0 0" fill="#ffea92"/><path d="M370.328 228.836h-17c-2.207 0-4-1.793-4-4v-42a4 4 0 014-4h17c6.621 0 12 5.379 12 12v26c0 6.613-5.379 12-12 12zm-13-8h13c2.207 0 4-1.797 4-4v-26c0-2.207-1.793-4-4-4h-13zm0 0" fill="#3762cc"/><path d="M134.055 420.59l.004-.242h.011a626.528 626.528 0 013.586-43.04l-.05-.007c.074-.5.152-.985.23-1.48 4.953-41.094 13.996-81.462 27-120.368 7.547-23.738 15.094-41.941 21.691-55.566.098-.219.188-.438.286-.657a159.977 159.977 0 0113.828-24.59c.629-.949 1.203-1.792 1.754-2.585 0 0 .015-.024.046-.063 3.145-4.512 5-6.531 5.004-6.535a146.56 146.56 0 0123.543-23.406c3.203-2.106 8.86-4.746 17.176-4.746h71.168c18.777 0 34 15.222 34 34v265.808c0 18.934-15.348 34.282-34.281 34.282H168.105c-19.125 0-34.55-15.649-34.277-34.77zm0 0" fill="#f9a7a7"/><path d="M288.664 137.3h-40.5c-8.32 0-13.976 2.641-17.18 4.747a146.746 146.746 0 00-23.543 23.41s-1.863 2.023-5.004 6.531a1.927 1.927 0 01-.046.063h.004c-.551.793-1.13 1.64-1.758 2.586a160.674 160.674 0 00-13.828 24.593c-.098.22-.188.438-.282.653-6.511 13.437-13.941 31.347-21.386 54.613h70.148c28.563 0 54.477-16.871 65.914-43.043l18.125-74.152zm0 0M319.328 137.3l8.04 1c-2.579-.628-5.263-1-8.04-1zm0 0" fill="#b9befc"/><path d="M134.055 440.875c1.875 17.133 16.367 30.516 34.05 30.516h150.946c18.93 0 34.277-15.348 34.277-34.278v-13.722H134.055zm0 0" fill="#4671c6"/><path d="M150.195 39.906v19.032a8.486 8.486 0 01-8.484 8.488H58.195v-36h83.516c4.684-.004 8.484 3.797 8.484 8.48zm0 0" fill="#ffea92"/><path d="M58.195 94.422v-15l28.688-3.344a5.043 5.043 0 011.93 9.867zm0 0" fill="#a4c9ff"/><path d="M319.05 475.39H168.106c-10.328 0-20.011-4.046-27.261-11.406-7.25-7.355-11.164-17.093-11.016-27.421l.227-16.032v-.008l.004-.246c.003-.132.011-.261.027-.394a635.444 635.444 0 013.523-42.422c-.011-.25 0-.504.04-.754l.23-1.496c4.969-41.223 14.11-81.984 27.16-121.027 6.664-20.961 14.035-39.836 21.887-56.047l.234-.551a164.928 164.928 0 0114.176-25.211 153.577 153.577 0 011.906-2.8c2.774-3.981 4.633-6.134 5.145-6.708a151.091 151.091 0 0124.113-23.96c.094-.071.187-.137.285-.204 3.746-2.469 10.152-5.406 19.375-5.406h71.164c20.957 0 38 17.047 38 38v265.812c.004 21.11-17.168 38.282-38.273 38.282zm-180.995-54.714l-.227 16.004c-.117 8.168 2.977 15.87 8.711 21.691 5.734 5.817 13.395 9.02 21.566 9.02h150.946c16.695 0 30.277-13.582 30.277-30.278V171.301c0-16.54-13.457-30-30-30h-71.164c-7.125 0-11.98 2.152-14.84 3.996a143.036 143.036 0 00-22.758 22.66c-.05.066-.109.129-.168.191-.07.082-1.804 2.004-4.68 6.133-.573.82-1.132 1.645-1.745 2.567-5.2 7.59-9.735 15.66-13.516 24.03l-.281.65c-7.735 15.968-14.965 34.484-21.531 55.136-12.895 38.594-21.922 78.824-26.84 119.633l-.153.984c.004.164-.004.332-.023.496a629.917 629.917 0 00-3.566 42.766c0 .043-.004.086-.008.133zm0 0" fill="#3762cc"/><path d="M333.328 68.5h-13.836c-11.043 0-20 8.953-20 20v48.8h19.836c18.781 0 34 15.223 34 34V88.5c0-11.047-8.953-20-20-20zm0 0" fill="#4671c6"/><path d="M353.328 175.3a4 4 0 01-4-4c0-16.538-13.457-30-30-30h-19.836a4 4 0 01-4-4V88.5c0-13.234 10.77-24 24-24h13.836c13.235 0 24 10.766 24 24v82.8c0 2.212-1.789 4-4 4zm-49.836-42h15.836c12.184 0 23.043 5.762 30 14.704V88.5c0-8.82-7.176-16-16-16h-13.836c-8.82 0-16 7.18-16 16zm0 0" fill="#3762cc"/><path d="M369.328 435.39c0 28.72-23.281 52-52 52s-52-23.28-52-52 23.281-52 52-52 52 23.282 52 52zm0 0" fill="#b9befc"/><path d="M349.328 435.39c0 17.676-14.324 32-32 32-17.672 0-32-14.324-32-32 0-17.671 14.328-32 32-32 17.676 0 32 14.329 32 32zm0 0" fill="#ffea92"/><g fill="#3762cc"><path d="M317.328 491.39c-30.875 0-56-25.12-56-56 0-30.874 25.125-56 56-56 30.879 0 56 25.126 56 56 0 30.88-25.121 56-56 56zm0-104c-26.465 0-48 21.536-48 48 0 26.47 21.535 48 48 48 26.469 0 48-21.53 48-48 0-26.464-21.531-48-48-48zm0 0M141.71 71.422H58.196c-2.207 0-4-1.793-4-4v-36c0-2.207 1.793-4 4-4h83.516c6.883 0 12.484 5.601 12.484 12.484v19.032c0 6.882-5.601 12.484-12.484 12.484zm-79.515-8h79.516a4.49 4.49 0 004.484-4.484V39.906a4.49 4.49 0 00-4.484-4.484H62.195zm0 0M58.195 98.422a3.996 3.996 0 01-4-4v-15a3.997 3.997 0 013.54-3.973l28.687-3.344a9.047 9.047 0 0110.09 8.985 9.069 9.069 0 01-6.63 8.71l-30.62 8.477c-.352.098-.711.145-1.067.145zm4-15.438v6.18l25.547-7.07c.453-.13.766-.54.766-1.004a1.038 1.038 0 00-1.164-1.035zm0 0"/></g><path d="M64.195 10v8c0 3.313-2.683 6-6 6h-48c-3.312 0-6-2.688-6-6v-8c0-3.313 2.688-6 6-6h48c3.317 0 6 2.688 6 6zm0 0" fill="#a4c9ff"/><path d="M58.195 28h-48c-5.511 0-10-4.484-10-10v-8c0-5.516 4.489-10 10-10h48c5.516 0 10 4.484 10 10v8c0 5.516-4.488 10-10 10zm-48-20c-1.101 0-2 .898-2 2v8c0 1.102.899 2 2 2h48c1.102 0 2-.898 2-2v-8c0-1.102-.898-2-2-2zm0 0" fill="#3762cc"/><path d="M44.195 469.664h-20c-2.21 0-4-2.617-4-5.851v-25.368c0-4.847 2.688-8.78 6-8.78h16c3.317 0 6 3.933 6 8.78v25.368c0 3.234-1.793 5.851-4 5.851zm0 0" fill="#f9cfcf"/><path d="M44.195 473.664h-20c-4.484 0-8-4.324-8-9.851v-25.368c0-7.164 4.395-12.78 10-12.78h16c5.61 0 10 5.616 10 12.78v25.368c0 5.527-3.511 9.851-8 9.851zm-19.55-8h19.097c.2-.3.453-.945.453-1.851v-25.368c0-3.082-1.5-4.78-2-4.78h-16c-.496 0-2 1.698-2 4.78v25.368c0 .906.254 1.55.45 1.851zm0 0" fill="#3762cc"/><path d="M26.195 429.664h16c.707 0 1.371.211 2 .54V145.835h-20v284.371c.63-.328 1.293-.543 2-.543zm0 0" fill="#a4c9ff"/><path d="M24.195 434.203a3.959 3.959 0 01-2.074-.582 3.994 3.994 0 01-1.926-3.418V145.836a4 4 0 014-4h20a4 4 0 014 4v284.371a3.998 3.998 0 01-5.848 3.547c-.144-.074-.21-.09-.21-.09l-15.899.004c-.027.008-.09.031-.195.086-.582.3-1.215.45-1.848.45zm4-8.539h12V149.836h-12zm0 0" fill="#3762cc"/><path d="M10.195 137.758a8 8 0 008 8h32a8 8 0 008-8V24h-48zm0 0" fill="#ffea92"/><path d="M50.195 149.758h-32c-6.617 0-12-5.383-12-12V24c0-2.207 1.793-4 4-4h48c2.207 0 4 1.793 4 4v113.758c0 6.613-5.382 12-12 12zM14.195 28v109.758c0 2.203 1.793 4 4 4h32c2.207 0 4-1.797 4-4V28zm0 0" fill="#3762cc"/></svg><svg viewBox="0 0 510 510" id="preview" xmlns="http://www.w3.org/2000/svg"><path d="M506.597 245.486C460.244 189.012 362.107 123.107 255 123.107c-107.491 0-205.632 66.353-251.597 122.379a15 15 0 000 19.028c47.452 57.84 145.819 122.38 251.597 122.38 109.537 0 207.256-68.357 251.597-122.379a15 15 0 000-19.029zM356.893 255c0 56.184-45.709 101.894-101.894 101.894-56.186 0-101.894-45.713-101.894-101.894 0-56.184 45.709-101.894 101.894-101.894 56.19.001 101.894 45.716 101.894 101.894zm-321.631.004c16.883-17.547 57.591-55.416 114.736-79.721-35.862 47.122-35.876 112.273-.017 159.412-43.449-18.415-83.811-47.509-114.719-79.691zm324.74 79.713c35.862-47.123 35.875-112.273.017-159.412 43.447 18.415 83.81 47.51 114.719 79.69-16.883 17.549-57.591 55.416-114.736 79.722z"/><path d="M204 255c0 28.122 22.878 51 51 51 28.121 0 51-22.878 51-51s-22.879-51-51-51c-28.122 0-51 22.878-51 51zm72 0c0 11.58-9.421 21-21 21-11.58 0-21-9.42-21-21s9.42-21 21-21c11.579 0 21 9.42 21 21zM255 65c8.284 0 15-6.716 15-15V15c0-8.284-6.716-15-15-15s-15 6.716-15 15v35c0 8.284 6.716 15 15 15zM344.5 85.062c7.192 4.102 16.355 1.601 20.461-5.599l19.962-35c4.104-7.196 1.599-16.356-5.598-20.461-7.198-4.104-16.356-1.599-20.461 5.599l-19.962 35c-4.104 7.195-1.598 16.356 5.598 20.461zM145.039 79.463c4.104 7.196 13.264 9.702 20.461 5.598 7.196-4.104 9.702-13.265 5.598-20.461l-19.962-35c-4.104-7.196-13.266-9.702-20.461-5.598-7.196 4.104-9.702 13.265-5.598 20.461zM255 445c-8.284 0-15 6.716-15 15v35c0 8.284 6.716 15 15 15s15-6.716 15-15v-35c0-8.284-6.716-15-15-15zM165.5 424.939c-7.196-4.103-16.356-1.598-20.461 5.598l-19.962 35c-4.104 7.196-1.598 16.357 5.598 20.461 7.197 4.104 16.357 1.597 20.461-5.598l19.962-35c4.105-7.196 1.598-16.357-5.598-20.461zM364.961 430.537c-4.104-7.197-13.267-9.701-20.461-5.599-7.196 4.104-9.702 13.265-5.598 20.461l19.962 35c4.103 7.196 13.263 9.703 20.461 5.599 7.196-4.104 9.702-13.265 5.598-20.461z"/></svg><svg fill="none" viewBox="0 0 39 36" id="prf-act" xmlns="http://www.w3.org/2000/svg"><path d="M38.15 18c0 9.941-8.54 18-19.075 18S0 27.941 0 18 8.54 0 19.075 0 38.15 8.059 38.15 18z" fill="#C4C4C4"/><g clip-path="url(#iclip0)"><mask id="ia" style="mask-type:alpha" maskUnits="userSpaceOnUse" x="0" y="0" width="39" height="36"><path d="M38.15 18c0 9.941-8.54 18-19.075 18S0 27.941 0 18 8.54 0 19.075 0 38.15 8.059 38.15 18z" fill="#C4C4C4"/></mask><g mask="url(#ia)" fill="#000"><path d="M18.584 19.848c2.063 0 3.849-.74 5.308-2.2 1.459-1.459 2.199-3.244 2.199-5.306s-.74-3.848-2.2-5.308c-1.459-1.458-3.245-2.198-5.307-2.198-2.062 0-3.848.74-5.307 2.199-1.46 1.459-2.2 3.244-2.2 5.306 0 2.063.74 3.849 2.2 5.308 1.46 1.459 3.245 2.199 5.307 2.199zM31.718 28.8a18.545 18.545 0 00-.252-1.97 15.525 15.525 0 00-.485-1.98 9.778 9.778 0 00-.813-1.846 6.97 6.97 0 00-1.228-1.6 5.41 5.41 0 00-1.763-1.107 6.092 6.092 0 00-2.25-.407c-.319 0-.626.13-1.22.517-.366.238-.794.514-1.271.82-.409.26-.962.503-1.645.724a6.529 6.529 0 01-2.01.325c-.669 0-1.345-.11-2.012-.325-.683-.22-1.236-.464-1.644-.724-.473-.303-.9-.579-1.272-.82-.593-.387-.901-.518-1.22-.518-.81 0-1.566.137-2.25.408a5.408 5.408 0 00-1.763 1.108 6.97 6.97 0 00-1.227 1.599 9.799 9.799 0 00-.814 1.847 15.553 15.553 0 00-.484 1.98c-.125.698-.21 1.36-.252 1.97a26.71 26.71 0 00-.063 1.84c0 1.626.518 2.943 1.537 3.915 1.008.958 2.34 1.444 3.96 1.444h15.007c1.62 0 2.953-.486 3.96-1.444 1.02-.971 1.537-2.288 1.537-3.916 0-.628-.021-1.247-.063-1.84z"/></g></g><defs><clipPath id="iclip0"><path fill="#fff" transform="translate(3.224 4.836)" d="M0 0h31.165v31.164H0z"/></clipPath></defs></svg><svg viewBox="-42 0 512 512.002" id="profile" xmlns="http://www.w3.org/2000/svg"><path d="M210.352 246.633c33.882 0 63.222-12.153 87.195-36.13 23.973-23.972 36.125-53.304 36.125-87.19 0-33.876-12.152-63.211-36.129-87.192C273.566 12.152 244.23 0 210.352 0c-33.887 0-63.22 12.152-87.192 36.125s-36.129 53.309-36.129 87.188c0 33.886 12.156 63.222 36.133 87.195 23.977 23.969 53.313 36.125 87.188 36.125zm0 0M426.129 393.703c-.692-9.976-2.09-20.86-4.149-32.351-2.078-11.579-4.753-22.524-7.957-32.528-3.308-10.34-7.808-20.55-13.37-30.336-5.774-10.156-12.555-19-20.165-26.277-7.957-7.613-17.699-13.734-28.965-18.2-11.226-4.44-23.668-6.69-36.976-6.69-5.227 0-10.281 2.144-20.043 8.5a2711.03 2711.03 0 01-20.879 13.46c-6.707 4.274-15.793 8.278-27.016 11.903-10.949 3.543-22.066 5.34-33.039 5.34-10.972 0-22.086-1.797-33.047-5.34-11.21-3.622-20.296-7.625-26.996-11.899-7.77-4.965-14.8-9.496-20.898-13.469-9.75-6.355-14.809-8.5-20.035-8.5-13.313 0-25.75 2.254-36.973 6.7-11.258 4.457-21.004 10.578-28.969 18.199-7.605 7.281-14.39 16.12-20.156 26.273-5.558 9.785-10.058 19.992-13.371 30.34-3.2 10.004-5.875 20.945-7.953 32.524-2.059 11.476-3.457 22.363-4.149 32.363A438.821 438.821 0 000 423.949c0 26.727 8.496 48.363 25.25 64.32 16.547 15.747 38.441 23.735 65.066 23.735h246.532c26.625 0 48.511-7.984 65.062-23.734 16.758-15.946 25.254-37.586 25.254-64.325-.004-10.316-.351-20.492-1.035-30.242zm0 0"/></svg><svg fill="none" viewBox="0 0 39 36" id="profile-active" xmlns="http://www.w3.org/2000/svg"><ellipse cx="19.075" cy="18" rx="19.075" ry="18" fill="#C4C4C4"/><g clip-path="url(#kclip0)"><mask id="ka" style="mask-type:alpha" maskUnits="userSpaceOnUse" x="-3" y="-5" width="72" height="68"><ellipse cx="32.724" cy="29.336" rx="35.5" ry="33.5" fill="#C4C4C4"/></mask><g mask="url(#ka)" fill="#000"><path d="M18.584 19.848c2.062 0 3.848-.74 5.307-2.2 1.46-1.459 2.2-3.244 2.2-5.306s-.74-3.848-2.2-5.308c-1.46-1.458-3.245-2.198-5.307-2.198-2.063 0-3.848.74-5.307 2.199-1.46 1.459-2.2 3.244-2.2 5.306 0 2.063.74 3.849 2.2 5.308 1.46 1.459 3.245 2.199 5.307 2.199zM31.718 28.8a18.519 18.519 0 00-.253-1.97 15.508 15.508 0 00-.484-1.98 9.778 9.778 0 00-.814-1.846 6.97 6.97 0 00-1.227-1.6 5.41 5.41 0 00-1.763-1.107 6.092 6.092 0 00-2.251-.407c-.318 0-.626.13-1.22.517-.366.238-.793.514-1.27.82-.409.26-.962.503-1.645.724a6.528 6.528 0 01-2.011.325c-.668 0-1.345-.11-2.012-.325-.682-.22-1.235-.464-1.643-.724-.473-.303-.9-.579-1.272-.82-.593-.387-.901-.518-1.22-.518-.81 0-1.567.137-2.25.408a5.408 5.408 0 00-1.763 1.108 6.97 6.97 0 00-1.227 1.599 9.799 9.799 0 00-.814 1.847 15.553 15.553 0 00-.484 1.98 18.47 18.47 0 00-.252 1.97 26.71 26.71 0 00-.063 1.84c0 1.626.517 2.943 1.537 3.915 1.007.958 2.34 1.444 3.96 1.444h15.006c1.621 0 2.953-.486 3.96-1.444 1.02-.971 1.538-2.288 1.538-3.916 0-.628-.022-1.247-.063-1.84z"/></g></g><defs><clipPath id="kclip0"><path fill="#fff" transform="translate(3.224 4.836)" d="M0 0h31.164v31.164H0z"/></clipPath></defs></svg><svg viewBox="0 0 512 512" id="right-arrow" xmlns="http://www.w3.org/2000/svg"><path d="M506.134 241.843l-.018-.019-104.504-104c-7.829-7.791-20.492-7.762-28.285.068-7.792 7.829-7.762 20.492.067 28.284L443.558 236H20c-11.046 0-20 8.954-20 20s8.954 20 20 20h423.557l-70.162 69.824c-7.829 7.792-7.859 20.455-.067 28.284 7.793 7.831 20.457 7.858 28.285.068l104.504-104 .018-.019c7.833-7.818 7.808-20.522-.001-28.314z"/></svg><svg viewBox="0 0 64 64" id="spray" xmlns="http://www.w3.org/2000/svg"><path d="M54.995 34.01h4V48h-4z" fill="#edab37"/><path d="M58.995 48c1.11 0 2 .89 2 2v7.01c0 3.311-2.68 6-6 6h-4c3.32 0 6-2.689 6-6V50c0-1.11-.89-2-2-2zM54.995 34.01c1.11 0 2-.89 2-2V25c0-3.31-2.68-6-6-6h4c3.32 0 6 2.69 6 6v7.01c0 1.11-.89 2-2 2zM40.995 26.01c1.11 0 2 .891 2 2a1.99 1.99 0 01-2 1.99c-1.1 0-1.99-.89-1.99-1.99 0-1.11.891-2 1.99-2z" fill="#f6bb42"/><circle cx="48.495" cy="55.5" fill="#f6bb42" r="2.5"/><path d="M56.995 50v7.01c0 3.311-2.68 6-6 6h-12c-3.31 0-6-2.689-6-6V50a2 2 0 012-2h.01V34.01c-1.109 0-2-.89-2-2V25c0-3.31 2.681-6 6-6h11.99c3.32 0 6 2.69 6 6v7.01c0 1.11-.89 2-2 2V48c1.11 0 2 .89 2 2zm-6 5.5a2.5 2.5 0 00-5 0 2.5 2.5 0 005 0zm-8-27.49c0-1.109-.89-2-2-2-1.1 0-1.99.891-1.99 2 0 1.101.891 1.99 1.99 1.99 1.11 0 2-.89 2-1.99z" fill="#ffce54"/><path d="M20.985.99h4v6h-4z" fill="#e6e9ed"/><path d="M20.985.99v6c-1.521 0-2.91.56-3.971 1.5a5.979 5.979 0 00-2.029 4.5h-9.99v-12z" fill="#ccd1d9"/><path d="M4.995 12.99h9.99v3h-9.99z" fill="#e6e9ed"/><path d="M19.005 20.01v3h-16V18c0-1.1.891-1.98 1.99-1.99v-.02h11.99v.02c1.109 0 2 .891 2 1.99z" fill="#967adc"/><path d="M26.015 59.01v-18c0-1.66-1.34-3-3-3.01h-.01a7.006 7.006 0 01-7-6.99h-10v27.98c0 .56.46 1.02 1.03 1.02h17.97c.55 0 1-.45 1-1zm2.98-18v18c0 2.21-1.79 3.99-3.99 3.99v.01H7.014a4.025 4.025 0 01-4.01-4.02V23.01h16V31c0 2.21 1.78 3.99 4 4h.01c3.32.01 6 2.69 6 6.01z" fill="#ac92ec"/><path d="M12.005 40.01a2 2 0 012 2c0 1.11-.89 2-2 2a2 2 0 110-4z" fill="#ac92ec"/><path d="M26.015 41.01v18h-.01c0 .55-.45 1-1 1H7.035c-.57 0-1.03-.46-1.03-1.02V31.01h10a7.006 7.006 0 007 6.99h.01c1.66.01 3 1.35 3 3.01zm-12.01 1a2 2 0 10-2 2c1.11 0 2-.89 2-2z" fill="#e6e9ed"/><g><path d="M4.998 16.991a1 1 0 01-1-1V12.99a1 1 0 112 0v3.001a1 1 0 01-1 1z"/><path d="M14.992 13.99H4.998a1 1 0 110-2h9.994a1 1 0 110 2z"/><path d="M14.992 16.99a1 1 0 01-1-1v-3a1 1 0 112 0v3a1 1 0 01-1 1z"/><path d="M14.992 13.99a1 1 0 01-1-1c0-3.858 3.14-6.998 6.998-6.998a1 1 0 110 2 5.004 5.004 0 00-4.998 4.998 1 1 0 01-1 1z"/><path d="M24.988 7.988h-3.994a1 1 0 01-1-1V.992a1 1 0 011-1h3.994a1 1 0 011 1v5.996a1 1 0 01-1 1zm-2.994-2h1.994V1.992h-1.994z"/><path d="M20.994 1.992H2.996a1 1 0 110-2h17.998a1 1 0 110 2z"/><path d="M4.998 13.99a1 1 0 01-1-1V.992a1 1 0 112 0V12.99a1 1 0 01-1 1zM16.992 16.99H5a1 1 0 110-2h11.992a1 1 0 110 2zM21.992 13.991a6.002 6.002 0 01-5.953-5.256l-.017-.145a1 1 0 01.898-1.092 1.008 1.008 0 011.092.898l.008.067a4.005 4.005 0 003.972 3.526 1 1 0 010 2.002zM3.014 59.986a1 1 0 01-1-1V18.005a1 1 0 112 0v40.981a1 1 0 01-1 1zM19.01 31.998a1 1 0 01-1-1v-10.99a1 1 0 112 0v10.99a1 1 0 01-1 1zM29 60.012a1 1 0 01-1-1V41.009a1 1 0 112 0v18.003a1 1 0 01-1 1zM25.008 64.008H7.018a1 1 0 110-2h17.99a1 1 0 110 2z"/><path d="M3.014 19.005a1 1 0 01-1-1A3 3 0 015.01 15.01a1 1 0 110 2 .997.997 0 00-.996.995 1 1 0 01-1 1zM18.988 19.005a1 1 0 01-1-1 .997.997 0 00-.996-.995 1 1 0 110-2 3 3 0 012.996 2.995 1 1 0 01-1 1zM7.035 64.008a5.027 5.027 0 01-5.021-5.021 1 1 0 112 0 3.024 3.024 0 003.021 3.021 1 1 0 110 2z"/><path d="M7.035 61.008a2.024 2.024 0 01-2.021-2.021 1 1 0 112 0c0 .013.009.021.021.021a1 1 0 110 2zM25.008 64.003a1 1 0 110-2 2.994 2.994 0 002.99-2.991 1 1 0 112 0 4.996 4.996 0 01-4.99 4.991z"/><path d="M25.008 61.011a1 1 0 110-2 1 1 0 112 .001 2.002 2.002 0 01-2 1.999zM23.018 36.005a5.013 5.013 0 01-5.008-5.007 1 1 0 112 0 3.011 3.011 0 003.008 3.007 1 1 0 110 2z"/><path d="M23.018 39.004c-4.415 0-8.008-3.592-8.008-8.006a1 1 0 112 0 6.014 6.014 0 006.008 6.006 1 1 0 110 2z"/><path d="M29.016 42.009a1 1 0 01-1-1 5.013 5.013 0 00-5.008-5.008 1 1 0 110-2 7.016 7.016 0 017.008 7.008 1 1 0 01-1 1z"/><path d="M26.018 42.008a1 1 0 01-1-1 2.012 2.012 0 00-2.01-2.009 1 1 0 110-2 4.014 4.014 0 014.01 4.009 1 1 0 01-1 1zM19.01 21.008a1 1 0 01-1-.989l-.021-2.003a1 1 0 01.989-1.011h.011a1 1 0 011 .989l.021 2.003a1 1 0 01-.989 1.011h-.011z"/><path d="M26.018 60.012a1 1 0 01-1-1V41.008a1 1 0 112 0v18.004a1 1 0 01-1 1z"/><path d="M25.008 61.008H7.035a1 1 0 110-2h17.973a1 1 0 110 2z"/><path d="M6.014 59.986a1 1 0 01-1-1L5.01 31.007a1 1 0 112 0l.004 27.979a1 1 0 01-1 1z"/><path d="M16.01 32.007h-10a1 1 0 110-2h10a1 1 0 110 2zM12.01 45.012c-1.654 0-3-1.346-3-3s1.346-3 3-3 3 1.346 3 3-1.346 3-3 3zm0-4a1 1 0 100 2 1 1 0 000-2zM22.01 49.007h-12a1 1 0 110-2h12a1 1 0 110 2zM22.01 52.007h-12a1 1 0 110-2h12a1 1 0 110 2zM16.004 55.007H10.01a1 1 0 110-2h5.994a1 1 0 110 2zM19.012 24.008H3.006a1 1 0 110-2h16.006a1 1 0 110 2z"/><g><path d="M39.004 64.007c-3.859 0-7-3.141-7-7a1 1 0 112 0c0 2.757 2.243 5 5 5a1 1 0 110 2z"/><path d="M33.004 58.007a1 1 0 01-1-1v-7.008a1 1 0 112 0v7.008a1 1 0 01-1 1z"/><path d="M33.004 50.999a1 1 0 01-1-1c0-1.654 1.346-3 3-3a1 1 0 110 2 1 1 0 00-1 1 1 1 0 01-1 1zM51 64.007a1 1 0 110-2c2.757 0 5-2.243 5-5a1 1 0 112 0c0 3.859-3.141 7-7 7z"/><path d="M57 58.007a1 1 0 01-1-1v-7.008a1 1 0 112 0v7.008a1 1 0 01-1 1z"/><path d="M57 50.999a1 1 0 01-1-1 1 1 0 00-1-1 1 1 0 110-2c1.654 0 3 1.346 3 3a1 1 0 01-1 1zM55.002 64.007H39.004a1 1 0 110-2h15.998a1 1 0 110 2zM57.002 26.003a1 1 0 01-1-1c0-2.757-2.243-5-5-5a1 1 0 110-2c3.859 0 7 3.141 7 7a1 1 0 01-1 1z"/><path d="M57.002 33.011a1 1 0 01-1-1v-7.008a1 1 0 112 0v7.008a1 1 0 01-1 1z"/><path d="M55.002 35.011a1 1 0 110-2 1 1 0 001-1 1 1 0 112 0c0 1.654-1.346 3-3 3zM33.006 26.003a1 1 0 01-1-1c0-3.859 3.141-7 7-7a1 1 0 110 2c-2.757 0-5 2.243-5 5a1 1 0 01-1 1z"/><path d="M33.006 33.011a1 1 0 01-1-1v-7.008a1 1 0 112 0v7.008a1 1 0 01-1 1z"/><path d="M35.006 35.011c-1.654 0-3-1.346-3-3a1 1 0 112 0 1 1 0 001 1 1 1 0 110 2zM55.004 20.003H39.006a1 1 0 110-2h15.998a1 1 0 110 2z"/><path d="M35.006 48.999a1 1 0 01-1-1V34.011a1 1 0 112 0v13.988a1 1 0 01-1 1zM55.002 48.999a1 1 0 01-1-1V34.011a1 1 0 112 0v13.988a1 1 0 01-1 1zM55.002 64.007a1 1 0 110-2c2.757 0 5-2.243 5-5a1 1 0 112 0c0 3.859-3.141 7-7 7z"/><path d="M61.002 58.007a1 1 0 01-1-1v-7.008a1 1 0 112 0v7.008a1 1 0 01-1 1z"/><path d="M61.002 50.999a1 1 0 01-1-1 1 1 0 00-1-1 1 1 0 110-2c1.654 0 3 1.346 3 3a1 1 0 01-1 1zM61.004 26.003a1 1 0 01-1-1c0-2.757-2.243-5-5-5a1 1 0 110-2c3.859 0 7 3.141 7 7a1 1 0 01-1 1z"/><path d="M61.004 33.011a1 1 0 01-1-1v-7.008a1 1 0 112 0v7.008a1 1 0 01-1 1z"/><path d="M59.004 35.011a1 1 0 110-2 1 1 0 001-1 1 1 0 112 0c0 1.654-1.346 3-3 3z"/><path d="M59.004 48.999a1 1 0 01-1-1V34.011a1 1 0 112 0v13.988a1 1 0 01-1 1z"/><path d="M59.002 48.999H55a1 1 0 110-2h4.002a1 1 0 110 2zM59.004 35.011h-4.002a1 1 0 110-2h4.002a1 1 0 110 2zM41.004 31.005c-1.653 0-2.998-1.346-2.998-2.999s1.345-2.999 2.998-2.999c1.654 0 3 1.346 3 2.999s-1.346 2.999-3 2.999zm0-3.998a1 1 0 10.002 1.998 1 1 0 00-.002-1.998zM48.504 59c-1.93 0-3.5-1.569-3.5-3.499s1.57-3.499 3.5-3.499c1.929 0 3.498 1.569 3.498 3.499S50.433 59 48.504 59zm0-4.998c-.827 0-1.5.673-1.5 1.499S47.677 57 48.504 57c.826 0 1.498-.673 1.498-1.499s-.672-1.499-1.498-1.499zM41.036 51.999c-.553 0-1.005-.447-1.005-1s.442-1 .994-1h.011a1 1 0 110 2zM49.044 44.992c-.553 0-1.005-.447-1.005-1s.442-1 .994-1h.011a1 1 0 110 2zM42.038 38.986c-.553 0-1.005-.447-1.005-1s.442-1 .994-1h.011a1 1 0 110 2zM51.046 29.978c-.553 0-1.005-.447-1.005-1s.442-1 .994-1h.011a1 1 0 110 2z"/></g></g></svg><svg fill="none" viewBox="0 0 248 174" id="sub-menu" xmlns="http://www.w3.org/2000/svg"><path d="M248 0v51h-28.5L248 0zM0 55a4 4 0 014-4h244v119a4 4 0 01-4 4H4a4 4 0 01-4-4V55z" fill="#3C3434" fill-opacity=".72"/></svg><svg viewBox="0 0 512 512" id="success" xmlns="http://www.w3.org/2000/svg"><path d="M256 0C114.833 0 0 114.833 0 256s114.833 256 256 256 256-114.853 256-256S397.167 0 256 0zm0 472.341c-119.275 0-216.341-97.046-216.341-216.341S136.725 39.659 256 39.659c119.295 0 216.341 97.046 216.341 216.341S375.275 472.341 256 472.341z"/><path d="M373.451 166.965c-8.071-7.337-20.623-6.762-27.999 1.348L224.491 301.509 166.053 242.1c-7.714-7.813-20.246-7.932-28.039-.238-7.813 7.674-7.932 20.226-.238 28.039l73.151 74.361a19.804 19.804 0 0014.138 5.929c.119 0 .258 0 .377.02a19.842 19.842 0 0014.297-6.504l135.059-148.722c7.358-8.131 6.763-20.663-1.347-28.02z"/></svg><svg viewBox="0 0 512 512" id="tick" xmlns="http://www.w3.org/2000/svg"><path d="M504.502 75.496c-9.997-9.998-26.205-9.998-36.204 0L161.594 382.203 43.702 264.311c-9.997-9.998-26.205-9.997-36.204 0-9.998 9.997-9.998 26.205 0 36.203l135.994 135.992c9.994 9.997 26.214 9.99 36.204 0L504.502 111.7c9.998-9.997 9.997-26.206 0-36.204z" fill="#05B902"/></svg></svg>