<svg width="570" height="456" fill="none" xmlns="http://www.w3.org/2000/svg"><path stroke="#0276FF" stroke-width="5" d="M205.016 430.744l-1.964 21.606m19.587-50.845l-14.631 16.019m45.079-29.71l-20.763 6.293m55.014-6.425l-21.692-.36m58.749 6.263l-21.313-4.055m60.047 14.022l-20.916-5.762m60.522 19.755l-20.504-7.09m58.949 13.055l-21.545-2.554m59.705-1.78l-21.428 3.396m56.275-20.867l-18.769 10.881m46.043-37.189l-14.838 15.828m34.457-47.046l-10.545 18.96m-1.055-183.857l12.722 17.574m-38.205-40.239l18.105 11.955m-56.022-21.289l21.314 4.046m-65.218-3.659l21.667-1.114m-66.641 8.697l21.283-4.211m-63.657 15.052l20.878-5.898m-62.242 23.569l19.842-8.772m-57.332 30.548L294.5 194.25m-49.866 37.256l16.665-13.891m-42.935 41.137l14.653-15.999m-44.519 41.814l17.001-13.479m-45.775 36.59l17.001-13.478m-49.364 30.276l19.938-8.554m-54.92 17.668l21.347-3.873m-55.26 3.797l21.605 1.971m-48.764-17.366l17.059 13.404m-32.5-41.144l8.796 19.832m-13.709-50.272l2.226 21.581"/><path transform="matrix(.36835 -.92969 .93607 .35182 5.785 59.232)" stroke="#0276FF" stroke-width="5" d="M0-2.5h16.761"/><path transform="matrix(.72024 -.69373 .7171 .69697 18.34 35.17)" stroke="#0276FF" stroke-width="5" d="M0-2.5h16.958"/><path transform="matrix(.93147 -.36381 .38815 .9216 39.358 17.491)" stroke="#0276FF" stroke-width="5" d="M0-2.5h17.169"/><path transform="matrix(.99645 -.08422 .09457 .99552 67.623 9.478)" stroke="#0276FF" stroke-width="5" d="M0-2.5h17.263"/><path transform="rotate(.888 -465.899 6361.183) skewX(.211)" stroke="#0276FF" stroke-width="5" d="M0-2.5h17.275"/><path transform="matrix(.94813 .3179 -.33367 .94269 129.333 11.023)" stroke="#0276FF" stroke-width="5" d="M0-2.5h17.239"/><path transform="matrix(.77235 .6352 -.65943 .75177 155.078 22.082)" stroke="#0276FF" stroke-width="5" d="M0-2.5h17.08"/><path transform="matrix(-.65843 -.75264 .77413 -.63302 189.777 56.03)" stroke="#0276FF" stroke-width="5" d="M0-2.5h16.988"/><path transform="matrix(-.88516 -.46528 .48735 -.8732 213.319 71.014)" stroke="#0276FF" stroke-width="5" d="M0-2.5h17.181"/><path transform="matrix(-.98474 -.17403 .18113 -.98346 242.335 78.685)" stroke="#0276FF" stroke-width="5" d="M0-2.5h17.27"/><path transform="rotate(-177.67 140.024 37.566) skewX(.113)" stroke="#0276FF" stroke-width="5" d="M0-2.5h17.276"/><path transform="matrix(-.99021 .13958 -.15338 -.98817 312.386 77.41)" stroke="#0276FF" stroke-width="5" d="M0-2.5h17.251"/><path transform="matrix(-.87457 .4849 -.5116 -.85922 343.784 66.186)" stroke="#0276FF" stroke-width="5" d="M0-2.5h17.103"/><path transform="matrix(-.51956 .85443 -.86796 -.49662 362.4 44.505)" stroke="#0276FF" stroke-width="5" d="M0-2.5h16.826"/></svg>